<?xml version="1.0" standalone="no"?>
<!DOCTYPE svg PUBLIC "-//W3C//DTD SVG 20010904//EN"
 "http://www.w3.org/TR/2001/REC-SVG-20010904/DTD/svg10.dtd">
<svg version="1.0" xmlns="http://www.w3.org/2000/svg"
 width="700.000000pt" height="700.000000pt" viewBox="0 0 700.000000 700.000000"
 preserveAspectRatio="xMidYMid meet">
<metadata>
Created by potrace 1.14, written by Peter Selinger 2001-2017
</metadata>
<g transform="translate(0.000000,700.000000) scale(0.100000,-0.100000)"
fill="#000000" stroke="none">
<path d="M1441 6685 c-47 -124 -62 -200 -68 -327 -7 -150 5 -222 52 -325 44
-95 105 -173 215 -275 49 -45 88 -84 85 -86 -8 -8 -282 50 -375 80 -126 40
-259 103 -353 167 -77 51 -77 52 -77 25 0 -48 31 -148 72 -233 86 -180 344
-382 560 -440 114 -31 177 -39 418 -56 433 -30 634 -84 865 -233 220 -141 422
-374 540 -625 24 -50 50 -117 58 -147 20 -74 21 -27 2 83 -22 127 -59 237
-130 382 -106 218 -228 388 -396 550 -112 108 -194 172 -434 335 -246 168
-367 264 -487 389 -187 193 -325 389 -450 639 l-76 153 -21 -56z"/>
<path d="M5445 6557 c-144 -274 -235 -404 -422 -605 -135 -145 -224 -217 -498
-400 -264 -176 -397 -282 -507 -403 -241 -266 -418 -623 -442 -894 l-7 -70 24
70 c49 144 143 302 268 452 196 234 461 394 754 457 105 23 211 35 410 46 212
12 266 17 359 36 38 8 71 13 73 10 6 -6 -152 -52 -402 -116 -422 -108 -571
-166 -770 -298 -175 -116 -347 -312 -420 -476 -104 -236 -112 -506 -19 -694
76 -155 256 -283 481 -343 59 -16 109 -21 208 -22 148 -1 225 15 343 69 205
93 349 256 423 474 28 82 33 113 37 226 5 149 -10 250 -58 372 -60 154 -172
301 -304 399 -35 26 -53 45 -45 48 81 28 375 84 519 100 l55 6 51 -73 c72
-104 99 -154 145 -269 148 -374 159 -831 27 -1144 -43 -102 -86 -168 -182
-282 -91 -109 -147 -157 -263 -227 l-88 -53 -7 -99 c-10 -138 -42 -344 -89
-573 -22 -107 -38 -202 -36 -213 3 -10 2 -18 -3 -18 -10 0 -24 -37 -46 -117
l-17 -63 -156 -81 c-431 -223 -593 -382 -1027 -1009 -163 -235 -305 -420 -322
-420 -14 1 -177 223 -364 496 -104 153 -224 322 -266 374 -191 241 -420 421
-742 582 -111 56 -127 69 -135 108 -3 14 -19 68 -36 120 -54 173 -118 537
-138 788 -6 67 -13 126 -16 132 -3 5 -40 28 -83 51 -145 80 -372 353 -435 524
-139 374 -127 729 40 1135 36 87 123 242 166 294 l24 30 124 -12 c117 -12 298
-44 398 -72 l45 -12 -35 -25 c-19 -14 -70 -63 -114 -108 -293 -300 -346 -771
-125 -1102 35 -51 179 -203 193 -203 5 0 29 -14 53 -31 61 -42 154 -83 239
-105 104 -27 294 -25 398 4 160 45 280 115 383 223 119 125 160 235 158 429
-1 141 -20 227 -78 362 -113 261 -297 448 -582 591 -112 56 -371 141 -652 213
-120 30 -249 66 -289 79 l-72 23 -58 -61 c-150 -157 -244 -318 -311 -529 -60
-187 -85 -359 -102 -683 -6 -115 -15 -289 -20 -385 -6 -96 -8 -195 -6 -220 2
-25 1 -36 -2 -25 -3 11 -18 -79 -33 -200 -77 -595 -50 -984 96 -1404 116 -334
368 -810 486 -916 81 -74 292 -168 660 -293 576 -197 891 -270 1194 -279 323
-10 551 40 1260 276 568 189 687 251 805 426 105 155 258 462 334 666 175 474
216 874 148 1444 -17 143 -33 307 -36 365 -3 58 -13 233 -21 390 -9 157 -20
323 -25 370 -50 416 -158 698 -377 977 -41 52 -73 96 -71 98 2 2 32 15 68 29
210 85 411 271 488 451 34 80 69 211 60 221 -4 3 -42 -16 -85 -43 -197 -127
-440 -215 -678 -248 l-50 -7 67 61 c115 106 211 243 253 361 26 75 36 183 25
283 -10 86 -66 335 -79 349 -3 3 -46 -71 -96 -165z m-3775 -1381 c0 -2 -8 -10
-17 -17 -16 -13 -17 -12 -4 4 13 16 21 21 21 13z m-90 -100 c0 -2 -8 -10 -17
-17 -16 -13 -17 -12 -4 4 13 16 21 21 21 13z m1234 -544 c136 -64 209 -176
209 -322 0 -102 -28 -173 -100 -250 -115 -125 -276 -159 -420 -89 -66 32 -139
103 -170 167 -24 49 -27 69 -28 148 0 84 2 95 38 166 44 91 121 166 200 197
78 31 182 25 271 -17z m1694 -2 c122 -65 193 -176 200 -315 3 -65 0 -91 -18
-138 -29 -76 -112 -167 -188 -204 -51 -25 -68 -28 -157 -28 -91 0 -105 3 -158
30 -145 73 -226 235 -197 391 16 83 70 166 144 224 83 63 136 81 231 77 68 -3
89 -8 143 -37z m1459 -1307 c-3 -10 -5 -4 -5 12 0 17 2 24 5 18 2 -7 2 -21 0
-30z m-4910 -80 c-3 -10 -5 -2 -5 17 0 19 2 27 5 18 2 -10 2 -26 0 -35z m4900
-5 c-3 -8 -6 -5 -6 6 -1 11 2 17 5 13 3 -3 4 -12 1 -19z m-10 -60 c-3 -8 -6
-5 -6 6 -1 11 2 17 5 13 3 -3 4 -12 1 -19z m-20 -90 c-3 -8 -6 -5 -6 6 -1 11
2 17 5 13 3 -3 4 -12 1 -19z m-76 -215 c-12 -20 -14 -14 -5 12 4 9 9 14 11 11
3 -2 0 -13 -6 -23z m-41 -83 c-6 -11 -13 -20 -16 -20 -2 0 0 9 6 20 6 11 13
20 16 20 2 0 0 -9 -6 -20z m-90 -144 c0 -2 -8 -10 -17 -17 -16 -13 -17 -12 -4
4 13 16 21 21 21 13z m-40 -49 c0 -2 -15 -16 -32 -33 l-33 -29 29 33 c28 30
36 37 36 29z m-4325 -37 c10 -11 16 -20 13 -20 -3 0 -13 9 -23 20 -10 11 -16
20 -13 20 3 0 13 -9 23 -20z m4195 -93 c0 -2 -15 -16 -32 -33 l-33 -29 29 33
c28 30 36 37 36 29z m-4050 -52 c13 -14 21 -25 18 -25 -2 0 -15 11 -28 25 -13
14 -21 25 -18 25 2 0 15 -11 28 -25z m3980 -8 c0 -2 -10 -12 -22 -23 l-23 -19
19 23 c18 21 26 27 26 19z m-3929 -34 c13 -16 12 -17 -3 -4 -10 7 -18 15 -18
17 0 8 8 3 21 -13z m3879 -7 c0 -2 -8 -10 -17 -17 -16 -13 -17 -12 -4 4 13 16
21 21 21 13z m-265 -166 c-3 -5 -12 -10 -18 -10 -7 0 -6 4 3 10 19 12 23 12
15 0z"/>
<path d="M2625 4343 c-56 -15 -95 -71 -95 -140 0 -133 147 -188 243 -92 39 38
39 40 35 99 -3 46 -10 66 -29 86 -40 44 -96 61 -154 47z"/>
<path d="M4267 4332 c-62 -38 -84 -145 -43 -207 37 -57 117 -79 178 -51 95 45
103 203 14 257 -39 24 -112 24 -149 1z"/>
<path d="M3433 3773 c-38 -112 -139 -283 -215 -368 -55 -61 -64 -99 -43 -180
19 -70 117 -263 236 -463 65 -109 87 -139 96 -129 23 25 228 365 280 466 78
152 74 208 -23 329 -61 75 -115 171 -157 279 l-32 82 -68 1 c-56 0 -69 -3 -74
-17z"/>
<path d="M2538 2856 l-98 -21 52 -45 c89 -77 301 -232 410 -300 140 -88 564
-300 598 -300 19 0 276 117 390 177 200 106 409 249 583 399 55 47 75 69 65
74 -40 22 -164 42 -216 36 -120 -13 -348 -93 -632 -222 -102 -46 -190 -84
-195 -84 -6 0 -77 33 -160 74 -82 40 -206 95 -274 121 -140 53 -362 116 -400
114 -14 -1 -70 -11 -123 -23z"/>
</g>
</svg>
