<svg xmlns="http://www.w3.org/2000/svg" data-name="Layer 1" viewBox="0 0 949.7 482.3"><path fill="#f2f2f2" d="M910.3 462.9c-27.6 20-63.4 21-98 18.5l-14.5-1.2h-.7l-3-.3.3.4.7 1.4-.8-1.4-.2-.4c-9-15.6-17.9-31.8-20.2-49.6-2.3-18.5 4.3-39.5 20.6-48.6a32.9 32.9 0 0 1 6.7-2.8l3-.7a35.2 35.2 0 0 1 41 45.7c13.7-14.1 11.2-37 6.4-56.3-4.8-19.2-10.6-40.5-.9-57.8a38.1 38.1 0 0 1 25.6-17.9l1-.2a51.4 51.4 0 0 1 36.9 6.5c20.3 12.8 30.8 37.1 34.2 61 5.4 38.3-6.6 81-38 103.7Z"/><path fill="#fff" d="M901.4 401.4a87.4 87.4 0 0 1-6 24.7 75.9 75.9 0 0 1-11.8 19.2c-10 12-23 21-37.3 27a139.9 139.9 0 0 1-34 9l-14.5-1.1h-.7l-3-.3.3.4.7 1.4-.8-1.4-.2-.4a77.3 77.3 0 0 0 21.6-67.7 78 78 0 0 0-14.5-33.3l3-.7a80.9 80.9 0 0 1 7.3 12.2 79.2 79.2 0 0 1 6.9 49.3 81 81 0 0 1-20.5 40.4l2.7-.3a142 142 0 0 0 50.2-12.7 90.4 90.4 0 0 0 34-27.8 81.7 81.7 0 0 0 14.3-44.9c.8-17.1-1.5-34.6-5.4-51.2a215 215 0 0 0-18-49.3 1.5 1.5 0 0 1 .6-2 1.3 1.3 0 0 1 1-.2 1.1 1.1 0 0 1 .7.6l2.9 5.9a217.5 217.5 0 0 1 17 51c3.5 17 5.3 34.9 3.5 52.2Z"/><path fill="#f2f2f2" d="M540.5 471.7c14.1 10.2 32.4 10.7 50 9.4 2.6-.1 5-.3 7.4-.6h.4l1.5-.1v.2l-.5.7.4-.7.2-.2a70 70 0 0 0 10.3-25.4c1.1-9.4-2.2-20.1-10.5-24.8a16.8 16.8 0 0 0-3.5-1.4l-1.5-.4a18 18 0 0 0-21 23.4c-7-7.2-5.6-19-3.2-28.8 2.4-9.8 5.4-20.7.4-29.5a19.5 19.5 0 0 0-13-9.2h-.5a26.3 26.3 0 0 0-18.9 3.3c-10.4 6.5-15.7 19-17.5 31.1-2.8 19.6 3.4 41.4 19.5 53Z"/><path fill="#fff" d="M545 440.3a44.6 44.6 0 0 0 3.1 12.6 38.8 38.8 0 0 0 6 9.8 49.7 49.7 0 0 0 19.1 13.8 71.5 71.5 0 0 0 17.4 4.6c2.5-.1 5-.3 7.3-.6h.4l1.5-.1v.2l-.5.7.4-.7.2-.2a39.5 39.5 0 0 1-11.1-34.6 39.8 39.8 0 0 1 7.4-17l-1.5-.4a41.3 41.3 0 0 0-3.8 6.3 40.5 40.5 0 0 0-3.5 25.1 41.4 41.4 0 0 0 10.5 20.7l-1.4-.1a72.6 72.6 0 0 1-25.6-6.6 46.2 46.2 0 0 1-17.3-14.2c-4.9-6.7-7-14.7-7.4-22.9a96.7 96.7 0 0 1 2.8-26.2 109.9 109.9 0 0 1 9.2-25.1.8.8 0 0 0-.3-1 .7.7 0 0 0-.5-.2.6.6 0 0 0-.4.4l-1.5 3a111.1 111.1 0 0 0-8.7 26 89.5 89.5 0 0 0-1.8 26.7Z"/><path fill="#3f3d56" d="M164 13.2H17a17 17 0 0 0-17 17v231a17 17 0 0 0 17 17h147a17 17 0 0 0 17-17v-231a17 17 0 0 0-17-17Zm15 248a15 15 0 0 1-15 15H17a15 15 0 0 1-15-15v-231a15 15 0 0 1 15-15h147a15 15 0 0 1 15 15Zm300 17H332a17 17 0 0 1-17-17v-231a17 17 0 0 1 17-17h147a17 17 0 0 1 17 17v231a17 17 0 0 1-17 17Zm-147-263a15 15 0 0 0-15 15v231a15 15 0 0 0 15 15h147a15 15 0 0 0 15-15v-231a15 15 0 0 0-15-15Zm-64 132h-61a1 1 0 0 1 0-2h61a1 1 0 0 1 0 2Z"/><path fill="#3f3d56" d="M255 174.6a1 1 0 0 1-.6-1.7l31.8-24.3a3 3 0 0 0 0-4.8l-31.8-24.2a1 1 0 0 1 1.2-1.6l31.8 24.2a5 5 0 0 1 0 8l-31.8 24.2a1 1 0 0 1-.6.2Zm327-27.4h-61a1 1 0 0 1 0-2h61a1 1 0 0 1 0 2Z"/><path fill="#3f3d56" d="M569 174.6a1 1 0 0 1-.6-1.7l31.8-24.3a3 3 0 0 0 0-4.8l-31.8-24.2a1 1 0 0 1 1.2-1.6l31.8 24.2a5 5 0 0 1 0 8l-31.8 24.2a1 1 0 0 1-.6.2Z"/><path fill="#1e90ff" d="M423.5 106.7h-35a8.5 8.5 0 0 1-8.5-8.5v-34a8.5 8.5 0 0 1 8.5-8.5h35a8.5 8.5 0 0 1 8.5 8.5v34a8.5 8.5 0 0 1-8.5 8.5Z"/><path fill="#fff" d="M430 106.2a1 1 0 0 1-.7-.3l-48-48a1 1 0 1 1 1.4-1.4l48 48a1 1 0 0 1-.7 1.7Z"/><path fill="#fff" d="M382 106.2a1 1 0 0 1-.7-1.7l48-48a1 1 0 1 1 1.4 1.4l-48 48a1 1 0 0 1-.7.3Z"/><path fill="#3f3d56" d="M438 159.2h-65a12.5 12.5 0 0 1 0-25h65a12.5 12.5 0 0 1 0 25Zm-65-23a10.5 10.5 0 0 0 0 21h65a10.5 10.5 0 0 0 0-21Zm65 61h-65a12.5 12.5 0 0 1 0-25h65a12.5 12.5 0 0 1 0 25Zm-65-23a10.5 10.5 0 0 0 0 21h65a10.5 10.5 0 0 0 0-21Zm65 61h-65a12.5 12.5 0 0 1 0-25h65a12.5 12.5 0 0 1 0 25Zm-65-23a10.5 10.5 0 0 0 0 21h65a10.5 10.5 0 0 0 0-21ZM780.8.2l-145 24.1a17 17 0 0 0-14 19.6l37.8 227.8a17 17 0 0 0 19.6 14l145-24a17 17 0 0 0 14-19.6L800.4 14.2a17 17 0 0 0-19.6-14Zm55.4 242.2a15 15 0 0 1-12.3 17.3l-145 24a15 15 0 0 1-17.3-12.3L623.8 43.5a15 15 0 0 1 12.3-17.2l145-24.1a15 15 0 0 1 17.3 12.3Z"/><path fill="#ccc" d="m755.3 93.7-64.1 10.6a12.5 12.5 0 0 1-4.1-24.6L751 69a12.5 12.5 0 0 1 4.2 24.7Zm-67.9-12a10.5 10.5 0 0 0 3.4 20.6L755 91.7a10.5 10.5 0 0 0-3.5-20.7Zm75.4 57.3-64.1 10.7a12.5 12.5 0 1 1-4.1-24.7l64.1-10.6a12.5 12.5 0 0 1 4.1 24.7ZM695 127a10.5 10.5 0 0 0 3.5 20.7l64-10.6a10.5 10.5 0 0 0-3.3-20.7Zm75.3 57.4-64 10.7a12.5 12.5 0 1 1-4.2-24.7l64.2-10.6a12.5 12.5 0 0 1 4 24.6Zm-67.8-12a10.5 10.5 0 1 0 3.4 20.7l64.1-10.6a10.5 10.5 0 1 0-3.4-20.8Zm75.4 57.4-64.1 10.7a12.5 12.5 0 0 1-4.1-24.7l64-10.7a12.5 12.5 0 0 1 4.2 24.7Zm-68-12a10.5 10.5 0 1 0 3.5 20.7l64.2-10.7a10.5 10.5 0 0 0-3.5-20.7Z"/><path fill="#3f3d56" d="M801.6 27.6 625 56.9a1 1 0 1 1-.3-2l176.6-29.3a1 1 0 1 1 .3 2Z"/><circle cx="644.2" cy="38.1" r="7" fill="#1e90ff"/><path fill="#3f3d56" d="M783.6 11 764 14.1a1 1 0 0 1-.3-2L783.3 9a1 1 0 0 1 .3 2Zm1 5.8-19.7 3.3a1 1 0 0 1-.4-2l19.8-3.2a1 1 0 0 1 .3 2Zm1 6L765.9 26a1 1 0 1 1-.4-2l19.8-3.2a1 1 0 1 1 .3 2Z"/><path fill="#1e90ff" d="M128 163.7H53a8.5 8.5 0 0 1-8.5-8.5v-76a8.5 8.5 0 0 1 8.5-8.5h75a8.5 8.5 0 0 1 8.5 8.5v76a8.5 8.5 0 0 1-8.5 8.5Z"/><path fill="#3f3d56" d="M122.5 220.2h-65a12.5 12.5 0 1 1 0-25h65a12.5 12.5 0 1 1 0 25Zm-65-23a10.5 10.5 0 1 0 0 21h65a10.5 10.5 0 1 0 0-21Z"/><path fill="#fff" d="M134.5 162.2a1 1 0 0 1-.7-.3l-88-88a1 1 0 1 1 1.4-1.4l88 88a1 1 0 0 1-.7 1.7Z"/><path fill="#fff" d="M46.5 162.2a1 1 0 0 1-.7-1.7l88-88a1 1 0 1 1 1.4 1.4l-88 88a1 1 0 0 1-.7.3Z"/><path fill="#a0616a" d="M819 264.4a10.7 10.7 0 0 0-8.9-13.8l-51.3-60-12 12.6 51.1 57.5a10.8 10.8 0 0 0 21.2 3.7Z"/><path fill="#1e90ff" d="m773.6 203.2-18.3 13.4a4.5 4.5 0 0 1-6.6-1.5l-10.6-20a12.5 12.5 0 0 1 20.2-14.7l15.9 16a4.5 4.5 0 0 1-.6 6.8Z"/><circle cx="738.2" cy="138.6" r="24.6" fill="#a0616a"/><path fill="#2f2e41" d="M748.9 249.4a4.6 4.6 0 0 1-.8 0l-43-7.3a4.5 4.5 0 0 1-3.8-4.4c-.1-9.8.6-34.7 10.3-52.9a26.5 26.5 0 0 1 49.2 18.4 393 393 0 0 0-7.4 42.2 4.5 4.5 0 0 1-4.5 4Z"/><path fill="#a0616a" d="M658.5 168.5a10.5 10.5 0 0 1 .3 1.7l43 24.8 10.4-6 11.1 14.5L706 216a8 8 0 0 1-9.6-.3l-44.3-35a10.5 10.5 0 1 1 6.5-12.2Z"/><path fill="#1e90ff" d="M702.3 192.5a4.5 4.5 0 0 1 2.2-3l19.8-11a12.5 12.5 0 0 1 15.3 19.7l-15.7 16.3a4.5 4.5 0 0 1-6.8-.4l-14-18a4.5 4.5 0 0 1-.8-3.6Z"/><path fill="#a0616a" d="M681.5 469.7h-12.2l-2.9-47.1 15.1-.2v47.3z"/><path fill="#2f2e41" d="M684.7 481.6H645v-.5a15.4 15.4 0 0 1 15.4-15.4h24.2Z"/><path fill="#a0616a" d="M798.5 469.7h-12.2l-5.9-47.3h18.1v47.3z"/><path fill="#2f2e41" d="M801.7 481.6H762v-.5a15.4 15.4 0 0 1 15.4-15.4h24.2Zm-17.1-36.4a4.5 4.5 0 0 1-4.3-3l-39-111.7a2.5 2.5 0 0 0-4.4-.6l-38 50.8a3.5 3.5 0 0 0-.7 1.3L686 436.2a4.5 4.5 0 0 1-4.1 3.5l-14.6.7a4.4 4.4 0 0 1-3.4-1.4 4.5 4.5 0 0 1-1.3-3.4l2.6-49.4a115.4 115.4 0 0 1 12-46A259.3 259.3 0 0 0 704.5 238v-.5l44.8 7 6.7 9.4a128.6 128.6 0 0 0 9.7 12 50.5 50.5 0 0 1 11.8 30.5 253.5 253.5 0 0 0 4.6 32l22.2 109.1a4.5 4.5 0 0 1-3.8 5.6l-15.2 2a4.4 4.4 0 0 1-.6 0Zm-19.2-323.6a109 109 0 0 1-4.3-18.2c-.3-3.6.6-7.4 3.2-10 5-4.5 13.2-2.3 18.3 2 7.4 6.4 11.1 16.1 12.5 25.7s.8 19.5 1.1 29.2 1.7 19.7 6.7 28.1 14.2 14.8 23.9 14a16.8 16.8 0 0 0 10.5-4.4 12.2 12.2 0 0 0 3.6-10.6c5 9 2.5 21-5 28s-18.7 8.9-28.4 6-17.8-10.5-22.5-19.5-6.6-19.4-6.3-29.5c.2-7.8 1.5-15.7.2-23.4s-6.2-15.5-13.8-17.4Z"/><path fill="#2f2e41" d="M731.3 131.7c-1.3 4.3-6.3 7-10.7 6.2s-8.2-4.4-9.5-8.7a18 18 0 0 1 1.4-13.1 20.5 20.5 0 0 1 11.7-10.5 16.8 16.8 0 0 1 15.3 2.5 5.6 5.6 0 0 1 4-4.1 10.7 10.7 0 0 1 5.8 0 24.3 24.3 0 0 1 13.5 9.9 39.5 39.5 0 0 1 6.2 15.8c1.5 8.5 1 17.7-3.8 24.9s-14.5 11.4-22.4 8c-.5-2.5.6-5 2-7.3s3-4.3 3.5-6.8-.5-5.6-3-6.4c-2-.7-4.2.5-6.4.6a7 7 0 0 1-6.8-10.2Z"/><path fill="#ccc" d="M911.8 482.2h-381a1 1 0 0 1 0-2h381a1 1 0 0 1 0 2Z"/></svg>