<svg xmlns="http://www.w3.org/2000/svg" data-name="Layer 1" viewBox="0 0 751.2 558.1"><path fill="#f0f0f0" d="M641.2 554c8-18.7 13.6-39 11-59.1a65.2 65.2 0 0 0-6-19.7 59.6 59.6 0 0 0-9.1-14 8.3 8.3 0 0 0-10.6-1.6l-.8.5a8.8 8.8 0 0 0-3 3.6 6.3 6.3 0 0 0-.2.8 9 9 0 0 0-.3 3.8 95.6 95.6 0 0 1-1 31.1q-.7 4-1.8 7.8a77.5 77.5 0 0 0-5.3-6 65.3 65.3 0 0 0-16.4-12h-.1c-7.4-3.9-17.2-2.3-23 .3l-1 .5c-3 1.5-4.6 3.3-3.3 4.4l.9.8a95.7 95.7 0 0 1 21 28.4 93.3 93.3 0 0 1 5.2 13.1c2 6.3 3.6 13.2 7.3 18.2a16.4 16.4 0 0 0 1.3 1.6l33.7-.3.2-.1h1.3l-.1-.7-.1-.4-.1-.3.2-.4.1-.3Z"/><path fill="#fff" d="M641 555.4a.4.4 0 0 1-.6.3 18.3 18.3 0 0 0-4.5-2.4 38 38 0 0 0-6.3-1.6l-2.6-.5a32 32 0 0 1-12-4.1 12.3 12.3 0 0 1-5.7-8.3c-.5-3.4.1-6.8.4-10.1a17.9 17.9 0 0 0 .1-1.6 19.4 19.4 0 0 0-1.8-8.8 34.9 34.9 0 0 0-6.3-9q-2-2.1-4.2-4.1l-.2-.2a81 81 0 0 0-20.7-13.7l-.9-.4a86 86 0 0 0-2.2-1c.4 0 .7-.3 1.1-.4a83 83 0 0 1 23.1 14.6l.7.6q2.6 2.4 5 5a32.5 32.5 0 0 1 6 9.2 20.4 20.4 0 0 1 1.3 8.6l-.1 1.7c-.3 3.4-1 6.9-.2 10.2.8 3.9 3.8 6.5 7.3 8.2a31.6 31.6 0 0 0 7.1 2.2c5.1 1 10.4 1.6 14.9 4.3l.2.2a9.5 9.5 0 0 1 1 .6.6.6 0 0 1 0 .1.4.4 0 0 1 .2.4Z"/><path fill="#fff" d="M598.1 505a12.2 12.2 0 0 0-.4-15.7c-.4-.4-1 .1-.7.6a11.3 11.3 0 0 1 .4 14.7c-.4.4.4 1 .7.5Zm11.9 22a23.5 23.5 0 0 1-16.5-4.3c-.5-.4-1 .4-.5.7a24.5 24.5 0 0 0 17.3 4.5c.5 0 .4-1-.2-.9Zm-33.4-35.8v.1a7.8 7.8 0 0 1-5.4 4 21 21 0 0 0-.9-.9.3.3 0 0 1 .2 0 7 7 0 0 0 5.2-3.5l.2-.2a.5.5 0 0 1 .6-.1.5.5 0 0 1 .1.6Z"/><path fill="#fff" d="M297.7 176.4a67.9 67.9 0 0 0-67.8 67.8V504a67.9 67.9 0 0 0 67.8 67.8h604.6a67.9 67.9 0 0 0 67.8-67.8V244a67.9 67.9 0 0 0-67.8-67.7Z" style="isolation:isolate" transform="translate(-224.4 -171)"/><path fill="#e6e6e6" d="M902.3 577.3H297.7a73.3 73.3 0 0 1-73.3-73.2V244a73.3 73.3 0 0 1 73.3-73.2h604.6a73.3 73.3 0 0 1 73.3 73.3V504a73.3 73.3 0 0 1-73.3 73.2ZM297.7 181.8a62.4 62.4 0 0 0-62.4 62.4V504a62.4 62.4 0 0 0 62.4 62.4h604.6a62.4 62.4 0 0 0 62.4-62.4V244a62.4 62.4 0 0 0-62.4-62.3Z" style="isolation:isolate" transform="translate(-224.4 -171)"/><path fill="#1e90ff" d="M377.2 59.3H89.7a23.2 23.2 0 0 0-23.2 23.1v129.7a21.8 21.8 0 0 0 .4 4.1c0 .6.2 1.2.4 1.8a23.2 23.2 0 0 0 22.4 17.2h289.2a1.4 1.4 0 0 0 .3 0h.3l.7-.1 1-.2a.4.4 0 0 1 .2 0l.7-.2a2 2 0 0 0 .3 0l1.2-.4.5-.1.7-.3a2.9 2.9 0 0 0 .4 0v-.1a16.2 16.2 0 0 0 1.6-.7l1.3-.6.5-.2a.4.4 0 0 0 0-.1l1.3-.8a13.9 13.9 0 0 0 1.3-.9l.3-.2.4-.3.6-.6a2.8 2.8 0 0 0 .3-.3l1-.8a5.1 5.1 0 0 0 .4-.5 7.5 7.5 0 0 0 .6-.7l.6-.7a8.1 8.1 0 0 0 .6-.8 17.4 17.4 0 0 0 1.6-2.5l.3-.6.5-1.2.2-.5.4-1 .6-1.8.4-1.8a21.8 21.8 0 0 0 .4-4.1V82.4a23.2 23.2 0 0 0-23.2-23.1Z"/><path fill="#fff" d="M66.5 96.4h333.8v1.8H66.5zm0 20h333.8v1.8H66.5zm0 20h333.8v1.8H66.5zm0 19.9h333.8v1.8H66.5zm0 20h333.8v1.8H66.5zm0 19.9h333.8v1.8H66.5zm333.5 20-.4 1.8H66.8a15 15 0 0 1-.3-1.8Z" opacity=".3"/><path d="M400.4 184v28.1a21.8 21.8 0 0 1-.4 4.1l-.4 1.8-.6 1.8-.4 1c0 .2 0 .3-.2.5l-.5 1.1-.3.7a25 25 0 0 1-1.6 2.5 8.1 8.1 0 0 1-.6.8l-.6.7a7.5 7.5 0 0 1-.6.7 5.1 5.1 0 0 1-.5.5l-.9.8a2.8 2.8 0 0 1-.3.3l-.6.6-.4.3-.3.2a13.9 13.9 0 0 1-1.2.9h-.1l-.8.5-.4.3a.4.4 0 0 1-.1 0l-.5.3-1.3.6a16.2 16.2 0 0 1-1.5.7h-.1a2.9 2.9 0 0 1-.4.1l-.7.3-.5.1-1.2.3a2 2 0 0 1-.3.1 7 7 0 0 1-.6.1.4.4 0 0 0-.3.1l-1 .2h-.6a.2.2 0 0 1-.1 0h-.6l-.6.1H89.7A23.2 23.2 0 0 1 67.3 218h-.5a15 15 0 0 1-.3-1.8v-32.7a43.1 43.1 0 0 1 11.2 1.8c10 3 19.5 8.1 29.8 8.1h2.5c10.9-1 19.3-7.7 26.3-15.3l1.7-1.8 3.8-4.5a97.7 97.7 0 0 1 13.2-13.7l2.4-1.8a33.5 33.5 0 0 1 16-6.4l2.2-.1A40 40 0 0 1 200 158a108.4 108.4 0 0 1 9.2 7 175.2 175.2 0 0 0 14.2 11.2l1 .7c.6.4 1.2.8 1.8 1a42 42 0 0 0 16.4 6.3h.6a42.6 42.6 0 0 0 29.3-8 124 124 0 0 0 17.6-14.2l4.3-4 2-1.8c10.8-9.4 23.2-18.1 38-18.1h1.8a47 47 0 0 1 27.6 12.2 84.7 84.7 0 0 1 6.5 6s.2 0 .3.2l1.4 1.5c5.8 6.1 11.2 12.6 17.5 18.2a40 40 0 0 0 2.1 1.8 59.2 59.2 0 0 0 7 5l1.7 1Z" opacity=".1"/><path d="M400.4 156.6V212a21.8 21.8 0 0 1-.4 4.1l-.4 1.8-.6 1.8-.4 1c0 .2 0 .3-.2.5l-.5 1.1-.3.7a25 25 0 0 1-1.6 2.5 8.1 8.1 0 0 1-.6.8l-.6.7a7.5 7.5 0 0 1-.6.7 5.1 5.1 0 0 1-.5.5l-.9.8a2.8 2.8 0 0 1-.3.3l-.6.6-.4.3-.3.2a13.9 13.9 0 0 1-1.2.9h-.1l-.8.5-.4.3a.4.4 0 0 1-.1 0l-.5.3-1.3.6a16.2 16.2 0 0 1-1.5.7h-.1a2.9 2.9 0 0 1-.4.1l-.7.3-.5.1-1.2.3a2 2 0 0 1-.3.1 7 7 0 0 1-.6.1.4.4 0 0 0-.3.1l-1 .2h-.6a.2.2 0 0 1-.1 0h-.3a1.4 1.4 0 0 1-.3 0 1 1 0 0 1-.2 0h-.1l-.3.1H89.7A23.2 23.2 0 0 1 67.3 218l-.4-1.8a21.8 21.8 0 0 1-.4-4.1v-32.3a54.1 54.1 0 0 0 3.7-3.5A139.2 139.2 0 0 0 85 158l.4-.5.9-1.3a142.6 142.6 0 0 1 14.7-18.1l1.8-1.8a42 42 0 0 1 23.6-12.2c12.5-1.6 24 4.2 34.4 12.2a109 109 0 0 1 12.2 10.9l2.6 2.5a383 383 0 0 0 8.6 8.3 65.8 65.8 0 0 0 33 18.6 40.6 40.6 0 0 0 13.3-.4l2.1-.5c11-2.7 21-9.5 30.2-17.7l2-1.8a222 222 0 0 0 17.5-18.1l1.7-1.8a153.3 153.3 0 0 1 19.9-18.2l2.5-1.8a50 50 0 0 1 31.6-10 49.5 49.5 0 0 1 28.4 11.8 108.7 108.7 0 0 1 16.2 16.1l1.7 2 .9 1.1.6.8c4.8 6 9.4 12.2 14.3 18.1Z" opacity=".1"/><path d="M400.4 133.7V212a21.8 21.8 0 0 1-.4 4.1l-.4 1.8-.6 1.8-.4 1c0 .2 0 .3-.2.5l-.5 1.1-.3.7a25 25 0 0 1-1.6 2.5 8.1 8.1 0 0 1-.6.8l-.6.7a7.5 7.5 0 0 1-.6.7 5.1 5.1 0 0 1-.5.5l-.9.8a2.8 2.8 0 0 1-.3.3l-.6.6-.4.3-.3.2a13.9 13.9 0 0 1-1.2.9h-.1l-.8.5-.4.3a.4.4 0 0 1-.1 0l-.5.3-1.3.6a16.2 16.2 0 0 1-1.5.7h-.1a2.9 2.9 0 0 1-.4.1l-.7.3-.5.1-1.2.3a2 2 0 0 1-.3.1 7 7 0 0 1-.6.1.4.4 0 0 0-.3.1l-1 .2h-.6a.2.2 0 0 1-.1 0h-.3a1.4 1.4 0 0 1-.3 0h-.3l-1.4.1H89.7A23.2 23.2 0 0 1 67.3 218l-.4-1.8a21.8 21.8 0 0 1-.4-4.1v-46.9l5.5-7 1.4-1.9a351.2 351.2 0 0 1 15.4-18.1l1.7-1.8a100.9 100.9 0 0 1 23.5-18.2l3.6-1.8a56 56 0 0 1 20.5-5.3 57 57 0 0 1 27.1 5.3 117 117 0 0 1 28.8 20l2 1.8c6.1 5.8 12 12 17.6 18.1l1.2 1.4.4.4c5.5 6 11.3 12 17.4 17.7l.6.5a140.7 140.7 0 0 0 9.5 8 97.3 97.3 0 0 0 19.5 12l4.5 1.8a53.7 53.7 0 0 0 26 3 52 52 0 0 0 11.8-3 105.7 105.7 0 0 0 29.6-20l2-1.8c4.5-4.2 8.9-8.6 13.2-12.8l5.5-5.4 2-1.8 7.1-6a90.9 90.9 0 0 1 19.5-12.1 38.5 38.5 0 0 1 4.6-1.8 48.7 48.7 0 0 1 12.4-2.7Z" opacity=".1"/><circle cx="138.2" cy="116.4" r="5.4" fill="#fff"/><circle cx="221.6" cy="176.3" r="5.4" fill="#fff"/><circle cx="334.1" cy="136.4" r="5.4" fill="#fff"/><path fill="#e6e6e6" d="M581.7 182.8H453.4a4.6 4.6 0 1 0 0 9.3h128.3a4.6 4.6 0 1 0 0-9.3Zm0 70.2H453.4a4.6 4.6 0 1 0 0 9.2h128.3a4.6 4.6 0 1 0 0-9.3Zm0 70H453.4a4.6 4.6 0 1 0 0 9.3h128.3a4.6 4.6 0 1 0 0-9.2Z"/><circle cx="659.5" cy="187.8" r="11.6" fill="#f2f2f2" style="isolation:isolate"/><path fill="#fff" d="M658 193.8a1.3 1.3 0 0 1-1.1-.5l-3.2-4.2a1.3 1.3 0 1 1 2-1.6l2.1 2.8 5.4-8a1.3 1.3 0 0 1 2 1.5l-6.2 9.4a1.3 1.3 0 0 1-1 .6Z"/><circle cx="659.5" cy="257.9" r="11.6" fill="#f2f2f2" style="isolation:isolate"/><path fill="#fff" d="M658 264a1.3 1.3 0 0 1-1.1-.6l-3.2-4.2a1.3 1.3 0 1 1 2-1.5l2.1 2.7 5.4-8a1.3 1.3 0 1 1 2 1.5l-6.2 9.5a1.3 1.3 0 0 1-1 .5Z"/><circle cx="659.5" cy="328" r="11.6" fill="#f2f2f2" style="isolation:isolate"/><path fill="#e6e6e6" d="M581.7 112.7H453.4a4.6 4.6 0 1 0 0 9.2h128.3a4.6 4.6 0 1 0 0-9.2Z"/><circle cx="659.5" cy="117.7" r="11.6" fill="#1e90ff"/><path fill="#fff" d="M658 123.7a1.3 1.3 0 0 1-1.1-.5l-3.2-4.2a1.3 1.3 0 1 1 2-1.6l2.1 2.8 5.4-8a1.3 1.3 0 1 1 2 1.4l-6.2 9.5a1.3 1.3 0 0 1-1 .6Z"/><circle cx="621.1" cy="117.7" r="11.6" fill="#f2f2f2" style="isolation:isolate"/><circle cx="621.1" cy="187.8" r="11.6" fill="#f2f2f2" style="isolation:isolate"/><circle cx="621.1" cy="257.9" r="11.6" fill="#f2f2f2" style="isolation:isolate"/><circle cx="621.1" cy="328" r="11.6" fill="#f2f2f2" style="isolation:isolate"/><path fill="#fff" d="M658 334a1.3 1.3 0 0 1-1.1-.5l-3.2-4.2a1.3 1.3 0 1 1 2-1.5l2.1 2.7 5.4-8a1.3 1.3 0 0 1 2 1.5l-6.2 9.5a1.3 1.3 0 0 1-1 .6Zm-16.8 220a.4.4 0 0 1-.1.3.6.6 0 0 1-.3.1.4.4 0 0 1-.4-.3c-1.4-4.6-4.8-8.2-8-11.7a31.8 31.8 0 0 1-7.2-10.5 12.3 12.3 0 0 1 .6-10 17.7 17.7 0 0 1 1.7-2.6c1.4-1.9 3.1-3.5 4.6-5.2a23 23 0 0 0 1-1.3 19.3 19.3 0 0 0 4-8 34.8 34.8 0 0 0 .3-11q-.3-3-.9-5.8v-.3a80.8 80.8 0 0 0-8.3-23.4l-.5-.8-2-3.4.8-.5a82.8 82.8 0 0 1 6 11.6 81.3 81.3 0 0 1 4.8 16l.2 1 1 7a32.3 32.3 0 0 1-.8 10.9 20.4 20.4 0 0 1-4 7.7l-1.2 1.2c-1.5 1.7-3.2 3.3-4.5 5.1a15.1 15.1 0 0 0-1.8 3 12 12 0 0 0 1 10.9c3.1 6.1 9.3 10.3 12.6 16.3a18.6 18.6 0 0 1 1.4 3.5.5.5 0 0 1 0 .2Z"/><path fill="#fff" d="M637 488.3a12.2 12.2 0 0 0 9.3-12.9c0-.6-1-.5-1 0a11.3 11.3 0 0 1-8.5 12c-.6.2-.3 1 .3.9Zm-3.6 24.7a23.5 23.5 0 0 1-10.6-13.5c-.1-.5-1-.2-.8.3a24.5 24.5 0 0 0 11 14c.5.3 1-.5.4-.8Zm-5.1-48.8h-.1a7.7 7.7 0 0 1-5.7.3 6.3 6.3 0 0 1 .3-.8 6.8 6.8 0 0 0 5-.2l.2-.1a.5.5 0 0 1 .6.2.5.5 0 0 1-.3.6Z"/><path fill="#ffb6b6" d="M578.4 311a9.4 9.4 0 0 0-2.5-14.1l6-32.7-16 6.7-3.2 30a9.4 9.4 0 0 0 15.7 10Z"/><path fill="#3f3d56" d="m588.2 214.2-5.1-17-35.7-55.7a26.3 26.3 0 0 0-7-5.8 26.6 26.6 0 0 0-34.7 38.7 24.7 24.7 0 0 0 2.5 2.9l46.2 47.6 2.6 2.7 4.2 10.6 1.6 48 1.5.3 13 3 1.7.5 3-15.7 2-7.5a79.5 79.5 0 0 0 2.4-19.5c0-2 0-4.1-.2-6.1Z"/><path fill="#ffb6b6" d="M539.1 544.9h-12.4l-5.9-47.7h18.3v47.7z"/><path fill="#2f2e41" d="m538.8 540.9-13.2-5.4-.4-.1-7.3 5.5a15.5 15.5 0 0 0-15.6 14.9v1.2h40v-16.1Z"/><path fill="#ffb6b6" d="m515.5 520.2-10.7 6.3-29.3-38.2 15.8-9.3 24.2 41.2z"/><path fill="#2f2e41" d="m522.9 526.5-1.5-2.4-5.2-9-2.7 1.6-.3.2-14.1 2-.5.1-3.4 8.5a15.5 15.5 0 0 0-5.6 21.3l.3.4 34.4-20.2Z"/><path fill="#2f2e41" d="M554.8 252.8a90 90 0 0 1-1.4 57l-1.7 70.1-5.5 44.3a75.8 75.8 0 0 1 5 27.1c0 24.4-1.7 59-10 75.2h-19.6l-4.4-72.3-5.3-36.4-.7-39-.6-34-21.3 31.2-20.8 30.4 20.7 34.8 18 56-19 16-21.6-41-10.4-12-28.6-61.8 2.6-8.6a203.3 203.3 0 0 1 22.8-50.2l28.3-65.8Z"/><path fill="#3f3d56" d="m557.3 247-3.2-6.5.3-15.6 1-52.5a50.4 50.4 0 0 0-15-36.7 49.4 49.4 0 0 0-9.6-7.4l-7-4.2-3.4-9-32.5.9v8.6l-.1 3-11.6 18.6v.1l.2 33.7.5 67.2 3.2 10.4-4.8 12.1 2.5 7.7 2.1-.3 69.4-11a13.6 13.6 0 0 0 7.5-6 12.4 12.4 0 0 0 .9-1.8 13.6 13.6 0 0 0-.4-11.4Z"/><circle cx="501.2" cy="74.6" r="29.5" fill="#ffb6b6"/><path fill="#2f2e41" d="M519.5 99a39 39 0 0 0 8.4-9.5 35.4 35.4 0 0 0 5-28.3 10.8 10.8 0 0 0-2.6-5.2 4.6 4.6 0 0 0-5.3-1 9.7 9.7 0 0 0-.5-7.7 17 17 0 0 0-5.1-6 28.4 28.4 0 0 0-29-3c-1.9 1 1-5.7-.8-5a7.9 7.9 0 0 1-6 0c-1.8-1-7.7 4.6-7 2.7a9 9 0 0 0-2 15c1.6 1.2 3.5 2 5.2 3a14.6 14.6 0 0 1 4.7 18.8 19.4 19.4 0 0 1 5.7-2.5 6.6 6.6 0 0 1 5.8 1.3 7.4 7.4 0 0 1 2 5.4c0 2-.5 4-.5 6 0 5.9-3 17 1.5 20.2 3.6 2.4 16.4-1.3 20.6-4.3Z"/><path fill="#ffb6b6" d="M337.3 146.3a9.4 9.4 0 0 0 14.2 2.3l28.8 16.7-1-17.3-27.2-13.2a9.4 9.4 0 0 0-14.8 11.5Z"/><path fill="#3f3d56" d="M523.2 141.1a26.6 26.6 0 0 0-35.4-16.5l-1 .4-63.8 29.1-24.8-3L366 140l-.8 1.3-7.3 11.2-1 1.5 34.5 20.4 3.7.8a24.7 24.7 0 0 1 15.7 10.7l13.4 4.4 52.2-10.2 29.3-5.6 1.7-.4a26.6 26.6 0 0 0 17-24.8 26.4 26.4 0 0 0-1.2-8Z"/><path fill="#ccc" d="M671.8 558.1h-348a1.2 1.2 0 1 1 0-2.3h348a1.2 1.2 0 0 1 0 2.3Z"/><path fill="#e6e6e6" d="M297.3 280H85.9a4.6 4.6 0 0 0 0 9.2h211.4a4.6 4.6 0 1 0 0-9.3Z"/><circle cx="375" cy="284.9" r="11.6" fill="#1e90ff"/><path fill="#fff" d="M373.4 291a1.3 1.3 0 0 1-1-.6l-3.1-4.2a1.3 1.3 0 1 1 2-1.5l2 2.7 5.4-8a1.3 1.3 0 1 1 2.1 1.5l-6.3 9.5a1.3 1.3 0 0 1-1 .5Z"/><circle cx="336.6" cy="284.9" r="11.6" fill="#f2f2f2" style="isolation:isolate"/><path fill="#e6e6e6" d="M296.3 336H84.9a4.6 4.6 0 0 0 0 9.2h211.4a4.6 4.6 0 1 0 0-9.3Z"/><circle cx="374" cy="340.9" r="11.6" fill="#f2f2f2" style="isolation:isolate"/><path fill="#fff" d="M372.4 347a1.3 1.3 0 0 1-1-.6l-3.1-4.2a1.3 1.3 0 1 1 2-1.5l2 2.7 5.4-8a1.3 1.3 0 1 1 2.1 1.5l-6.3 9.5a1.3 1.3 0 0 1-1 .5Z"/><circle cx="335.6" cy="340.9" r="11.6" fill="#f2f2f2" style="isolation:isolate"/></svg>