<svg xmlns="http://www.w3.org/2000/svg" data-name="Layer 1" viewBox="0 0 694 712.6"><path fill="#3f3d56" d="M499.7 168.9h-3.9v-107A62 62 0 0 0 434 0H207.3a62 62 0 0 0-62 62v586.8a62 62 0 0 0 62 62h226.6a62 62 0 0 0 62-62V245h3.8Z" data-name="Path 968"/><path fill="#fff" d="M483.1 57.8v595.1a47 47 0 0 1-46.9 47H204.9a47 47 0 0 1-47-47V57.8a47 47 0 0 1 47-47h28a22.3 22.3 0 0 0 20.7 30.8h131.9A22.3 22.3 0 0 0 406 10.8h30a47 47 0 0 1 47 47Z" data-name="Path 969"/><path fill="#e6e6e6" d="M425.8 400.6H220.3a3.8 3.8 0 0 1-3.8-3.8v-51a3.8 3.8 0 0 1 3.8-3.8h205.5a3.8 3.8 0 0 1 3.8 3.8v51a3.8 3.8 0 0 1-3.8 3.8Zm-205.5-57a2.3 2.3 0 0 0-2.3 2.2v51a2.3 2.3 0 0 0 2.3 2.3h205.5a2.3 2.3 0 0 0 2.3-2.3v-51a2.3 2.3 0 0 0-2.3-2.3Z" data-name="Path 39"/><path fill="#e6e6e6" d="M283.8 360.4a2.7 2.7 0 0 0 0 5.3h125.6a2.7 2.7 0 0 0 .2-5.3H283.7Z" data-name="Path 40"/><path fill="#e6e6e6" d="M283.8 376.3a2.7 2.7 0 0 0 0 5.4h125.6a2.7 2.7 0 0 0 .2-5.4H283.7Z" data-name="Path 41"/><path fill="#e6e6e6" d="M425.8 485.6H220.3a3.8 3.8 0 0 1-3.8-3.8v-51a3.8 3.8 0 0 1 3.8-3.8h205.5a3.8 3.8 0 0 1 3.8 3.8v51a3.8 3.8 0 0 1-3.8 3.8Zm-205.5-57.1a2.3 2.3 0 0 0-2.3 2.3v51a2.3 2.3 0 0 0 2.3 2.3h205.5a2.3 2.3 0 0 0 2.3-2.3v-51a2.3 2.3 0 0 0-2.3-2.3Z" data-name="Path 42"/><path fill="#e6e6e6" d="M283.8 445.6a2.7 2.7 0 0 0 0 5.3h125.6a2.7 2.7 0 0 0 .1-5.3H283.8Z" data-name="Path 43"/><path fill="#e6e6e6" d="M283.8 461.6a2.7 2.7 0 0 0 0 5.3h125.6a2.7 2.7 0 0 0 .1-5.3H283.8Z" data-name="Path 44"/><path fill="#e6e6e6" d="M425.8 570.8H220.3a3.8 3.8 0 0 1-3.8-3.8v-51a3.8 3.8 0 0 1 3.8-3.8h205.5a3.8 3.8 0 0 1 3.8 3.8v51a3.8 3.8 0 0 1-3.8 3.8Zm-205.5-57a2.3 2.3 0 0 0-2.3 2.2v51a2.3 2.3 0 0 0 2.3 2.3h205.5a2.3 2.3 0 0 0 2.3-2.3v-51a2.3 2.3 0 0 0-2.3-2.2Z" data-name="Path 39-2"/><path fill="#e6e6e6" d="M283.8 530.9a2.7 2.7 0 1 0 0 5.3h125.6a2.7 2.7 0 0 0 .2-5.3H283.7Z" data-name="Path 40-2"/><path fill="#e6e6e6" d="M283.8 546.9a2.7 2.7 0 0 0 0 5.3h125.6a2.7 2.7 0 0 0 .2-5.3H283.7Z" data-name="Path 41-2"/><path fill="#e6e6e6" d="M692.2 712.6H1.8c-1 0-1.8-.5-1.8-1s.8-1.1 1.8-1.1h690.4c1 0 1.8.5 1.8 1s-.8 1-1.8 1Z" data-name="Path 970"/><g data-name="Group 58"><path fill="#e6e6e6" d="M29 671.8a19.5 19.5 0 0 0 18.9-3.3c6.6-5.5 8.6-14.6 10.3-23l5-25-10.4 7.1c-7.5 5.2-15.2 10.5-20.3 18s-7.5 17.6-3.3 25.7" data-name="Path 438"/><path fill="#f2f2f2" d="M30.7 703.7c-1.3-9.5-2.7-19.2-1.8-28.8a46 46 0 0 1 8.8-23.8 39.6 39.6 0 0 1 10.1-9.2c1-.6 2 1 1 1.6a37.6 37.6 0 0 0-14.9 18 60.3 60.3 0 0 0-3.2 26c.3 5.2 1 10.5 1.8 15.8a1 1 0 0 1-.7 1.1 1 1 0 0 1-1.1-.7Z" data-name="Path 439"/><path fill="#e6e6e6" d="M40.1 688.4a14.3 14.3 0 0 0 12.5 6.5c6.3-.3 11.6-4.7 16.3-9l14-12.3-9.2-.5c-6.7-.3-13.5-.6-20 1.5s-12.1 7-13.3 13.6" data-name="Path 442"/><path fill="#f2f2f2" d="M27 709.2c6.3-11.1 13.6-23.5 26.7-27.5a29.8 29.8 0 0 1 11.2-1.1c1.2 0 .9 1.9-.3 1.8a27.7 27.7 0 0 0-18 4.7c-5 3.5-9 8.2-12.2 13.3-2 3.1-3.9 6.4-5.7 9.6-.6 1-2.3.3-1.7-.8Z" data-name="Path 443"/></g><g data-name="Group 59"><circle cx="245.9" cy="371" r="16" fill="#1e90ff" data-name="Ellipse 5"/><path fill="#e6e6e6" d="M238.3 368c-.2 0-.4 1.2-.4 2.7s.2 2.6.4 2.6H254c.2 0 .3-1.1.3-2.6a6 6 0 0 0-.3-2.7h-15.7Z" data-name="Path 40-3"/></g><g data-name="Group 60"><circle cx="245.9" cy="456.3" r="16" fill="#1e90ff" data-name="Ellipse 5-2"/><path fill="#e6e6e6" d="M238.3 453.3c-.2 0-.4 1.2-.4 2.7s.2 2.6.4 2.6H254c.2 0 .3-1.1.3-2.6a6 6 0 0 0-.3-2.7h-15.7Z" data-name="Path 40-4"/></g><g data-name="Group 61"><circle cx="245.9" cy="541.5" r="16" fill="#1e90ff" data-name="Ellipse 5-3"/><path fill="#e6e6e6" d="M238.3 538.5c-.2 0-.4 1.2-.4 2.7s.2 2.7.4 2.7H254c.2 0 .3-1.2.3-2.6a6 6 0 0 0-.3-2.7h-15.7Z" data-name="Path 40-5"/></g><path fill="#e6e6e6" d="M372.2 256.7a4.5 4.5 0 0 1-4-2.5 52.9 52.9 0 0 0-31.4-26.4 60 60 0 0 0-8.4-1.9h-.6l30-93.6h.4c58.2 15.8 91.4 62.4 100.2 76.3a4.5 4.5 0 0 1-1.8 6.4l-82.4 41.2a4.5 4.5 0 0 1-2 .5Z"/><path fill="#feb8b8" d="M551.6 456a9.3 9.3 0 0 1 12.7-6.4l22.3-24.3 4.2 16.6-21.8 20.6a9.3 9.3 0 0 1-17.4-6.5Z" data-name="Path 2881"/><path fill="#feb8b8" d="M599.5 698.3h-13.6l-6.5-52.5h20Z" data-name="Path 2882"/><path fill="#2f2e41" d="M603 693.9h-27a17 17 0 0 0-17 17v.6h44Z" data-name="Path 2883"/><path fill="#feb8b8" d="m677.7 684.8-12.8 4.9-24.7-46.8 18.8-7.2Z" data-name="Path 2884"/><path fill="#2f2e41" d="m679.3 679.5-25 9.5a17 17 0 0 0-10 22l.3.5 41-15.6Z" data-name="Path 2885"/><path fill="#2f2e41" d="m632.9 523.6 11.2 60.8s30.7 85.4 28.5 87.5-31.7 9.7-30 4.9-35.5-77.4-35.5-77.4Z" data-name="Path 2886"/><path fill="#e4e4e4" d="M587.1 413.3s-22.8 29.8-19.8 31.4 14.6 10.3 14.6 10.3l11.7-32.3Z" data-name="Path 2887"/><path fill="#2f2e41" d="M580.7 443.4s-3.7 28-2.1 33.8.5 173.6-.6 176.2-4.3 11.9-2.6 16.2 23.6 15 26.8 11.2 26.9-140.7 26.9-140.7 33.3-82.8 25.8-90.8-74.2-6-74.2-6Z" data-name="Path 2888"/><circle cx="629.1" cy="237.5" r="26.3" fill="#feb8b8" data-name="Ellipse 542"/><path fill="#e4e4e4" d="M601.6 297a18.7 18.7 0 0 1 6-11l4.8-14.7h28.2l7.8 12.3c8.5 3.7 14.8 9.5 15 16.3 1.4 4.6-4.2 148.8-5.8 154.2-.5 1.6-7 2.4-16 2.8-8.3.3-18.7.3-28.8 0a420 420 0 0 1-34.8-1.7c-5.9-1 23-154.8 23.6-158.2Z" data-name="Path 2890"/><path fill="#feb8b8" d="M626.5 488.3a9.3 9.3 0 0 0 1.8-14l15.6-29.1-17 1.5-12.2 27.4a9.3 9.3 0 0 0 11.8 14.2Z" data-name="Path 2891"/><path fill="#e4e4e4" d="M629 281.1s-24.6 10.2-15.5 36 19.4 56.4 19.4 56.4-13 69.3-13 72-8 17.2-4.8 19.9 24.7 8 25.3 5.4a181.7 181.7 0 0 1 5.9-18.3c1-2.1 26.3-69.3 23-75.2-2.3-4.4-4.4-44.2-5.3-65a34.1 34.1 0 0 0-17.8-28.7c-5-2.6-10.8-4-17.1-2.5Z" data-name="Path 2893"/><path fill="#2f2e41" d="M639.2 249.2c-2-.9-4.3-1-6.5-1.6-7.7-2-12.9-9.7-11.2-16.6a7.5 7.5 0 0 0 .4-2.8c-.3-2-2.7-3.3-5-3.8s-4.8-.4-7-1.2a9.4 9.4 0 0 1-6-7.3 13.7 13.7 0 0 1 2.2-9.2l.9 2a7.8 7.8 0 0 0 2.7-3.5 5.5 5.5 0 0 1 4.2 3c1.4.7 1.6-2.1 3-2.5a3 3 0 0 1 1.9.4c3 1.2 6.4.2 9.6-.5a41.2 41.2 0 0 1 16.7 0c3.7.7 7.3 2 10 4.4a20.4 20.4 0 0 1 4.6 7 35.6 35.6 0 0 1 3.7 19.5A26 26 0 0 1 656 251c-2.1 2.1-9 9.6-12.8 8.3-4.8-1.6 1.6-7.6-4-10.2Z" data-name="Path 2800"/><circle cx="322" cy="266.5" r="8" fill="#3f3d56"/><path fill="#1e90ff" d="M268.3 256.6a4.5 4.5 0 0 1-2.1-.6l-82-43.2a4.5 4.5 0 0 1-1.7-6.3 181.7 181.7 0 0 1 41-46 149.4 149.4 0 0 1 95.7-33.5 151.9 151.9 0 0 1 39 5.3l.5.1-29.9 93.6-.4-.1a66.7 66.7 0 0 0-8.2-.7 49.5 49.5 0 0 0-47.9 28.8 4.4 4.4 0 0 1-2.6 2.3 4.5 4.5 0 0 1-1.4.3Z"/><path fill="#3f3d56" d="M358.1 132.8 337 227.3a60.4 60.4 0 0 0-8.4-1.9l29.6-92.6Z"/></svg>