<svg xmlns="http://www.w3.org/2000/svg" fill="none" viewBox="0 0 360 360"><g clip-path="url(#a)"><path fill="#072833" d="M259.9 254.7c-1.3 1.3-1.8 5.2-3 9-8.7 27.4-13.4 40.5-39.3 56.6a204.7 204.7 0 0 1-33.4 16c-1.4 1.8-3.1 3.6-4.6 5.3l-4.3-5.2c-4.2-1-11.6-4.8-15.9-7.1-11.8-6.3-30-17.4-38.5-27.4a110.2 110.2 0 0 1-17.2-34c-.4-1.3-1.1-3.3 0-3.8l-1.5-1.7c-.2-4.4-2.1-7.6-2.2-8-29.6-10.6-49.6-38.1-45.5-70l.8-.1 11.9-2.6a72.9 72.9 0 0 1-2.3-54c3-9.6 6.4-16.3 12.3-24.3 3-4 6.6-7.4 9.7-11.2-2.4-.6-4.7-1.5-7-2.2-28 26-23.2 59.9-25.8 92.2-1 14.4-3.8 26-4 41.2-.5 25.1 4.2 43.2 14.9 65.6 23.7 16.3 46.1 34.5 70.4 50 43.5 12.7 55 10.5 97.7-3 21.7-15.1 42.6-31.6 63.3-48.1a147.2 147.2 0 0 0 14.2-63.7c-.2-12-2.6-24-3.4-35.8-1 32.5-18.2 53.4-47.3 66.3Z"/><path fill="#072833" d="M177.5 148.5c.7-19.3-12.8-42.3-26-55.7C139.2 80.5 126 74 113 63.8a64.3 64.3 0 0 1-7-5.9A129.4 129.4 0 0 1 75.4 13c-4.2 8.8-6.4 20-4.5 30 3.2 16 18.7 24.2 18 25.5-13-2.4-21.5-3.8-33.3-10.2a57.5 57.5 0 0 1-8.3-5.6c-1.1.1 1.6 10.4 3.9 14.5 5 9.4 18.6 19.2 28.7 22 20.9 6 47.6-2.9 75 21.7 9.7 8.5 21 24.7 22.6 37.6Zm131.2-80.9c1-2 2.4-5.2 3-7.3 3.2-11.6 2-7.5-7-2.4a86.7 86.7 0 0 1-33.4 10.5c7.8-6 16.2-16.3 17.7-26.1 1.5-10.5-1.6-19-4.1-29l-5.3 10.3c-7 13.4-12.8 21.7-23.4 32.5-3 2.9-4.6 4.7-7.9 7.4-12.5 10.1-26.8 16-40.6 30.4-12.5 13-24.8 34.7-24.2 53.1 1.7-13 13.5-28.9 23.3-37.3C233.3 87 258.6 95 278.8 90a52.2 52.2 0 0 0 30-22.4Z"/><path fill="#0B5662" d="M83 318.5c8.3 6.6 40.9 17 52.4 20.5-24.3-15.5-46.7-33.7-70.5-50 3.6 7.6 12 24.5 18.1 29.5Z"/><path fill="#044250" d="M278 318c6.4-5.1 14.8-22.2 18.4-30.1-20.7 16.5-41.6 33-63.3 48 10.3-3.2 37.3-11.7 44.9-17.8Z"/><path fill="#00868F" d="M305.4 183.5c-8.2 6-18.4 13.4-27 18.3-.3.1-1.3.7-1.4 0a66 66 0 0 1-10 6c-.6 12.2-2.7 24.1-5.2 36.1-.8 3.4-1.9 7.4-1.9 10.8 29-13 46.2-33.8 47.3-66.3 0-1.8-.2-3.5-.3-5.3-.7 0-.8.4-1.5.4ZM92.9 208.1l-.6-1c-2.5-1.1-4.8-2.5-7.2-3.8-10.5-5.6-20-12.4-29.8-19-.3 0-.5 0-.8.2-4.1 31.8 15.9 59.3 45.5 69.8-1-3.2-1.5-7-2.3-10.4a219 219 0 0 1-4.8-35.8Z"/><path fill="#163949" d="M208.4 302.2c-7.3 9.5-18.4 27-24.2 34.2 8.8-2.9 25.7-11.3 33.4-16 25.9-16.2 30.5-29.3 39.3-56.7-24.5 12.3-32 17.3-48.5 38.5ZM103.7 264c-1.1.6-.4 2.6 0 4a110 110 0 0 0 17.2 33.9c8.6 10 26.7 21 38.5 27.4 4.3 2.3 11.7 6 15.9 7-25-32.9-28.7-52.3-71.6-72.3Z"/><path fill="#044250" d="m67.2 181.7-12 2.6c9.9 6.6 19.4 13.4 29.9 19a79 79 0 0 1-18-21.6Z"/><path fill="#E7E2D4" d="M183.5 147c-.6 4.7-.6 13.3.3 17.9a56 56 0 0 0 12.3 22c8.6 8.2 27.1 16.8 39.2 15.6-16.2-1-35.4-14.6-37.7-31.3a28.3 28.3 0 0 1-2.6-8c-4.7-28.8 16.6-51.3 41.8-61 10.6-4 24.8-7 36.1-10 2.2-.5 4.2-1.5 6.4-1.9l-.4-.3c-20.3 4.9-45.6-3-72.1 19.7-9.8 8.4-21.6 24.4-23.3 37.3Z"/><path fill="#072833" d="M283 103c5.6 7 8.7 12.7 11.6 21.3 6 18.2 7.3 40.6-1.5 58.1 4 .6 8.2 1 12.3 1.1.7 0 .8-.4 1.5-.3-2.5-33.7 1-63.7-25.6-93.6-.3 0-1.6.7-2 .8-2.2.3-4.2 1.3-6.4 1.8 3.4 3.7 7 7 10 10.8h.1Z"/><path fill="#36C0CC" d="M177.5 148.5a56 56 0 0 1-.7 16.4h7a69 69 0 0 1-.3-17.9c-.6-18.4 11.8-40 24.2-53.1 13.8-14.5 28.1-20.3 40.6-30.4-41.9-20.6-93.8-22-135.3.4 13 10.2 26.3 16.6 38.4 28.9 13.3 13.4 26.8 36.4 26.1 55.7Z"/><path fill="#044250" d="M277 201.8c0 .7 1.1.1 1.3 0 8.8-5 19-12.3 27-18.3-4 0-8.2-.5-12.2-1-3 6-10.7 15.2-16 19.3Z"/><path fill="#00868F" d="M137.3 211.5c-1.1.3-11.7 2.6-12.3 2.6 14.3 12.6 30.4 23 48 30.6 2.2.9 4.3 1.7 6.2 3 2 0 4-1.4 6.1-2.3a161.3 161.3 0 0 0 49.6-31.7c-4-.3-7.8-2.3-12-2.2-15.2 3-29.3 9.8-43.3 16.4a157.3 157.3 0 0 0-42.3-16.4Z"/><path fill="#072833" d="M162.6 188c.4 1.4-.4 2.7.4 6 1.3 5.6 12.8 25.3 17 31.6 3.7-6 16.7-26 17.6-31.3.7-3.5-.3-4.2-1.4-7.4a56 56 0 0 1-12.3-22h-7.1a60.3 60.3 0 0 1-14.2 23.1Z"/><path fill="#E7E2D4" d="M137.3 211.5c15 3 28.9 9.2 42.3 16.4 14-6.5 28-13.3 43.4-16.4a69 69 0 0 1-25.4-17.2c-.9 5.3-13.9 25.4-17.7 31.3-4.1-6.3-15.6-26-17-31.6a52.3 52.3 0 0 1-25.6 17.5Z"/><path fill="#36C0CC" d="M197.6 194.3a69 69 0 0 0 25.4 17.2c4-.1 8 2 12 2.2h2.5c8.2.2 21.9-2.6 29.5-6 2.6-1.1 7.7-4.1 10-5.9 5.4-4.1 13-13.4 16-19.4 9-17.5 7.6-40 1.6-58.1-.4 2.4.9 5.9 1 8.4 2.4 31.4-22.3 72.3-60.3 69.9-12 1.1-30.6-7.4-39.1-15.7 1.2 3.2 2 4 1.5 7.5Z"/><path fill="#00A2A1" d="M295.7 132.7c-.2-2.5-1.5-6-1.1-8.4-2.9-8.6-6-14.3-11.6-21.3a169 169 0 0 0-30.2 5.6c25.6 15.6 30.6 54.3 5.8 73-22.5 17-52.6 5.6-61-10.4 2.3 16.7 21.5 30.3 37.7 31.3 38 2.4 62.7-38.4 60.4-69.9Z"/><path fill="#077178" d="M283 103c-3.1-3.9-6.7-7.1-10-10.8-11.4 3-25.6 6-36.2 10a58 58 0 0 1 16 6.4A166 166 0 0 1 283 103Z"/><path fill="#36C0CC" d="M229.3 259C211 278.2 198 284.2 180 301.3c-14-12-33.1-24.1-45.6-37-6.4-6.7-11.5-14.6-18.1-21.1-3-1.2-14.2.8-18.5.7.8 3.4 1.3 7.2 2.3 10.5.1.4 2 3.6 2.2 8l1.5 1.7c43 19.9 46.5 39.4 71.6 72.3l4.3 5.2 4.6-5.2c5.9-7.2 17-24.7 24.3-34.1 16.4-21.3 24-26.3 48.4-38.6 1.2-3.8 1.7-7.7 3-9 0-3.4 1.2-7.4 1.9-10.8l-17.4-1.1c-3 .6-12.2 13.2-15 16.2Z"/><path fill="#47C3D0" d="M208.3 263.7a140 140 0 0 0-23-18.3c-2 .9-4.2 2.3-6.1 2.3-2-1.3-4-2.1-6.1-3a59.4 59.4 0 0 0-21.9 19c-3.3-6.1-28.8-46.2-29.2-49-.1-.8.7-.4.7-1-10.3.2-20-2.7-29.8-5.5.6 12 2.3 24 4.9 35.7 4.2.1 15.4-2 18.4-.7 6.6 6.5 11.7 14.4 18 21 12.6 13 31.8 25 45.8 37.1 18-17.1 31-23 49.3-42.3 2.9-3 12-15.6 15.1-16.2l17.4 1.1c2.5-12 4.6-23.9 5.2-36.1a85.4 85.4 0 0 1-29.5 6l-29.2 49.9Z"/><path fill="#47C3D0" d="M122.7 213.7c0 .6-.8.2-.7 1 .4 2.8 25.8 42.9 29.2 49a59.3 59.3 0 0 1 21.8-19 179 179 0 0 1-48-30.6c-.2 0-.4-.4-2.3-.4Zm85.6 50 29.2-50H235a161.4 161.4 0 0 1-49.6 31.7 140 140 0 0 1 23 18.3Z"/><path fill="#00A2A1" d="M73.9 170.7c10.7 19.7 29.8 34.4 53.3 31.8a48.3 48.3 0 0 0 29.8-17c2.4-3.2 7.2-13.2 6.7-17.3-7.2 17.7-37.5 31.3-61 13.8-25-18.7-21.1-56.9 4-73.8-9-2.7-19.6-4.2-29.5-4.8a72 72 0 0 0-12.3 24.2 69.1 69.1 0 0 0 9 43Z"/><path fill="#36C0CC" d="M85 203.3c2.5 1.3 4.8 2.7 7.3 3.7l.6 1.1c9.8 2.8 19.5 5.8 29.8 5.6 1.9 0 2.1.4 2.3.4.6 0 11.2-2.3 12.3-2.6A53 53 0 0 0 163 194c-.8-3.3 0-4.7-.4-6a57 57 0 0 1-35.4 14.5c-23.5 2.6-42.6-12.1-53.3-31.8a69.2 69.2 0 0 1-9-43 72.9 72.9 0 0 0 2.3 54 79 79 0 0 0 17.9 21.6Z"/><path fill="#E7E2D4" d="M121.2 101.9a72 72 0 0 1 29.5 17.7c11.5 12 19.7 32.5 13 48.6.5 4-4.3 14-6.7 17.4a48.2 48.2 0 0 1-29.8 17 57 57 0 0 0 35.4-14.6 59.2 59.2 0 0 0 14.2-23.1c1-4.3 1.3-12 .7-16.4-1.6-13-13-29-22.5-37.7-27.5-24.5-54.2-15.6-75.1-21.6v.8c2.3.7 4.6 1.6 7 2.2 11.5 3 23.2 5.7 34.3 9.7Z"/><path fill="#077178" d="M121.2 101.9c-11.1-4-22.8-6.7-34.3-9.7-3 3.8-6.7 7.2-9.7 11.2a135 135 0 0 1 29.5 4.8c4.6-3 9.2-4.7 14.5-6.3Z"/><path fill="#072833" d="M102.8 182c23.4 17.5 53.7 4 61-13.8 6.6-16.1-1.6-36.6-13.1-48.6a72 72 0 0 0-29.5-17.7 50.6 50.6 0 0 0-14.5 6.3c-25.2 17-29.1 55-4 73.9Zm32.8-57a20 20 0 0 1 17 8.4c11 17.5-10.5 38-27 25.5-14.4-10.6-5.1-32.8 10-33.9Z"/><path fill="#F69273" d="M125.5 159c16.6 12.3 38.2-8.1 27-25.6a20 20 0 0 0-17-8.4c-15 1-24.3 23.3-10 34Zm9.7-22.4c10.6-2.2 12.7 11.8 4.5 14.1-11.3 3.2-12.5-12.5-4.5-14.1Z"/><path fill="#033232" d="M139.7 150.7c8.2-2.3 6.1-16.3-4.5-14.1-8 1.6-6.8 17.3 4.5 14.1Z"/><path fill="#072833" d="M258.6 181.7c24.8-18.8 19.8-57.5-5.8-73.1a58 58 0 0 0-16-6.3c-25.2 9.6-46.5 32.1-41.8 60.9.5 2.6 1.4 5.6 2.6 8 8.3 16 38.5 27.4 61 10.5Zm-53.1-42.3c1.4-6.8 9.7-13.8 16.6-14.4 16-1.3 26.6 18.4 15.8 30.8a18.6 18.6 0 0 1-32.4-16.4Z"/><path fill="#F69273" d="M237.9 155.8c10.8-12.4.2-32.1-15.8-30.8-7 .6-15.2 7.6-16.6 14.4a18.6 18.6 0 0 0 32.4 16.4Zm-15.5-19.6c10-1 11 14 1.9 14.9-10.7 1.1-10.6-14.1-1.9-15Z"/><path fill="#033232" d="M224.3 151.1c9-1 8-15.8-1.9-15-8.7.9-8.8 16.1 1.9 15Z"/></g><defs><clipPath id="a"><path fill="#fff" d="M47 13h266.3v334.4H47z"/></clipPath></defs></svg>