<svg xmlns="http://www.w3.org/2000/svg" viewBox="0 0 583 431"><g fill="#61dafb"><path d="M291.5 309c-64.4 0-125-9.6-170.6-27-46.3-17.7-71.7-41.4-71.7-66.8s25.4-49.1 71.7-66.8c45.6-17.4 106.2-27 170.6-27s125 9.6 170.7 27c46.2 17.7 71.6 41.4 71.6 66.8s-25.4 49-71.6 66.7c-45.6 17.5-106.2 27-170.7 27Zm0-183.6c-64 0-124 9.5-169.2 26.8-44.6 17-69.1 39.4-69.1 63s24.5 46 69 63c45.3 17.3 105.4 26.8 169.3 26.8s124-9.5 169.2-26.8c44.6-17 69.1-39.4 69.1-63s-24.5-46-69-63c-45.2-17.3-105.3-26.8-169.3-26.8Z"/><path d="M391.6 430.4c-20 0-45-11.6-72.6-34-37.9-30.8-76.5-78.5-108.7-134.3-32.2-55.8-54.2-113.1-62-161.3-7.7-48.9 0-82.8 22-95.5 22-12.7 55.3-2.5 93.7 28.7 37.9 30.8 76.5 78.5 108.7 134.3 32.2 55.8 54.2 113 62 161.3 7.8 48.9 0 82.8-22 95.5a41.4 41.4 0 0 1-21 5.3ZM191.5 4c-7.1 0-13.6 1.6-19.1 4.8-20.5 11.8-27.6 44.2-20 91.3 7.6 47.8 29.4 104.6 61.4 160 32 55.4 70.2 102.7 107.8 133.2 37 30 68.6 40.1 89 28.3 20.5-11.8 27.7-44.3 20.1-91.4-7.6-47.7-29.5-104.5-61.4-159.9C337.3 115 299 67.6 261.5 37.1c-27-21.8-51-33.1-70-33.1Z"/><path d="M191.4 430.4c-7.8 0-14.9-1.8-21-5.3-22-12.7-29.8-46.6-22-95.5 7.7-48.2 29.7-105.5 62-161.3C242.4 112.5 281 64.8 319 34c38.4-31.2 71.7-41.4 93.7-28.7s29.8 46.6 22 95.5c-7.8 48.2-29.8 105.5-62 161.3C340.5 317.9 302 365.6 264 396.4c-27.6 22.4-52.6 34-72.6 34ZM391.5 4c-19 0-43 11.3-70 33.1C284 67.6 245.9 115 213.9 170.3c-32 55.4-53.8 112.2-61.5 160-7.5 47-.4 79.5 20 91.3a38 38 0 0 0 19.2 4.8c19 0 43-11.3 70-33.1 37.5-30.5 75.8-77.8 107.8-133.2 32-55.4 53.8-112.2 61.4-160 7.6-47 .4-79.5-20-91.3A38 38 0 0 0 391.6 4Z"/><circle cx="291.5" cy="215.2" r="44.8"/></g><g fill="#f2f2f2"><path d="M564.8 338.8c-.9-1.4-4.5 0-5.2-1.2-.7-1.3 2.7-3.3 4.7-7.7.3-.8 2.5-6 .9-7.5-3-3-17.2 9.3-22.2 5.3-1-.9-1.8-2.7-5.1-5.5-1.3-1.2-2.1-1.7-2.9-1.5-1 .3-1.2 1.7-2.3 4.6-1.8 4.3-2.8 4-3.8 7.4-.8 2.6-.6 4-1.5 4.4-1.3.4-2.4-2.3-4-2-1.6.2-2.6 3.3-3 5.6-.5 4.4 1.1 7.4 2 10.4a26 26 0 0 1-.7 15.5l-22.3 62.8a1725 1725 0 0 1 25.2-61.3c1.7-3.8 3.6-7.6 7.5-9.1 3.8-1.5 9-.6 15.6-2.2.7-.2 2.9-.8 3.2-2 .2-1-1-1.6-.9-2.6.3-1.3 2.7-1.3 5.8-2.8a18 18 0 0 0 4.6-3.5c.4-.3 5.5-5.2 4.4-7.1Z"/><path d="M477.1 371.8c-.9 0-1.2 2.3-2 2.2-.9 0-.8-2.3-2.5-4.5-.3-.4-2.1-3-3.4-2.6-2.3.7-.4 11.1-3.8 12.4-.7.3-1.8.2-4.2 1-1 .3-1.4.5-1.5 1-.2.5.5 1 1.6 2.4 1.6 2 1.1 2.5 2.5 4 1 1.1 1.8 1.5 1.7 2-.2.7-1.8.5-2.2 1.4-.3.8 1 2.2 2 3 2 1.6 3.9 1.6 5.7 2 1.9.6 4.5 1.7 7.4 5l24.4 29a931.3 931.3 0 0 1-22.9-30c-1.3-2-2.7-4-2.3-6.4.4-2.3 2.3-4.6 3.4-8.3.2-.4.5-1.6 0-2.1-.5-.4-1.1 0-1.5-.4-.6-.5 0-1.7.2-3.6.1-1.4-.1-2.4-.3-3.3 0-.2-1-4.2-2.3-4.2ZM496 376l-.6-5 .2-.4a9.4 9.4 0 0 0 1.8-5.2v-.8c0-1 0-2.3.6-3.9.4-.8 1.5-2.8 3-2.5.5 0 .9.2 1.1.5l.1-.2c.5-.8 1-1.1 1.3-1.4.3-.3.6-.5 1-1.1l.6-.7c.4-.6 1-1.3 2-1.3s1.5 1 1.9 1.5a12.2 12.2 0 0 1 1.3 2.6c.3.5 3 0 4-.1 2.3-.4 4.3-.7 5.1.7.6 1 .2 2.4-1.3 4.2l-1.4 1.3c.4.2.7.5.8 1 .3 1.3-.7 2.5-3.1 3.7a8.4 8.4 0 0 1-4 1l-.1.8c-.5.8-1.3 1.1-2.6 1-1.5 0-2.7-.3-3.7-.6a9 9 0 0 0-2.4-.3c-1.1 0-2 1-3 2.2l-2.7 3Zm2.6-30.1-4.8 1.8-.4-.1c-2-.8-3.9-1-5.5-.5l-.7.2c-1 .3-2.3.7-4 .5-.9-.2-3-.7-3.2-2.4 0-.4 0-.8.2-1l-.2-.1c-.9-.3-1.3-.6-1.7-1l-1.4-.7-.7-.3c-.7-.3-1.5-.6-1.8-1.6-.2-1 .5-1.7 1-2.2a12.2 12.2 0 0 1 2.2-2c.4-.4-.7-2.9-1.2-3.8-1-2.2-1.7-4-.5-5.2.8-.8 2.2-.7 4.3.3.7.3 1.2.7 1.6 1 .1-.4.4-.8.9-1 1-.7 2.5 0 4.3 2a8.4 8.4 0 0 1 2 3.6h.8c.8.2 1.4 1 1.6 2.2.3 1.5.4 2.7.4 3.8 0 .9 0 1.7.2 2.3.4 1.1 1.5 1.7 3 2.4l3.6 1.8ZM496 331l-.6-5.1.2-.4a9.4 9.4 0 0 0 1.8-5.2v-.8c0-1 0-2.3.6-3.9.4-.8 1.5-2.8 3-2.5.5 0 .9.2 1.1.4l.1-.1c.5-.8 1-1.1 1.3-1.5l1-1 .6-.7c.4-.6 1-1.3 2-1.3s1.5.9 1.9 1.5a12.2 12.2 0 0 1 1.3 2.6c.3.5 3 0 4-.1 2.3-.4 4.3-.7 5.1.7.6 1 .2 2.4-1.3 4.2l-1.4 1.3c.4.2.7.5.8 1 .3 1.3-.7 2.5-3.1 3.7a8.4 8.4 0 0 1-4 1l-.1.8c-.5.8-1.3 1.1-2.6 1-1.5 0-2.7-.3-3.7-.6a9 9 0 0 0-2.4-.3c-1.1 0-2 1-3 2.2l-2.7 3Z"/><path d="m501.1 429.3-1-.6-.3-1.3.3 1.3-1.3.1-.2-.8c-.5-2.3-2.2-9.2-3.6-20a197.9 197.9 0 0 1-1.1-41.7l.7-10.3a193 193 0 0 0 1-26.5c-.2-2.1-.4-6.4-3-11a21 21 0 0 0-6-7l1.6-2c2.8 2.2 5 4.8 6.7 7.8 2.8 5 3 9.8 3.1 12 .5 9.5-.1 18-.9 27l-.7 10.2c-.3 4.7-.7 10.6-.6 18.3a192.8 192.8 0 0 0 5.3 42.6c.3 1.2.3 1.4 0 2Z"/><path d="M482 315.5h-.2c-2.2-.2-4.1-1.4-6-3.8a31.3 31.3 0 0 1-3.2-10.2c-.2-1.8-.2-2.6.2-3.3.4-.7 1-1.2 1.7-1.6l.1-.7c.5-1 1.6-1 2.2-.8h1.1c.7 0 1-.2 1.6-.5.5-.3 1.1-.6 2-.8 2-.4 3.5.1 4 .3 2.7.9 4 3 5.6 5.4.3.5 1.4 2.3 2 4.8.6 1.7.5 2.5.4 3-.3 1.3-1 2-3 3.5-1.9 1.6-2.8 2.4-3.7 2.8-1.9 1.2-3.1 1.9-4.7 1.9Z"/></g><path fill="#ffb6b6" d="M243.5 228.7c4.1 1.1 8-.1 8.8-2.8.7-2.6-2.1-5.7-6.3-6.8-1.7-.4-3.4-.5-5-.1l-17.8-4.5-1.9 8.4 17.7 3.5c1.3 1.1 2.8 2 4.5 2.3Z"/><path fill="#2f2e41" d="M146.1 188s-3.6 7 1.4 10.4 46.5 19.2 46.5 19.2l41.3 9 1.4-10-37.5-12-31.3-21.1-21.8 4.6Z"/><path fill="#ffb6b6" d="m195.2 410.9 7-3.2-11-32.9-10.3 4.7 14.3 31.4z"/><path fill="#2f2e41" d="M225.9 414c.5 1.1.1 2.5-.9 3l-13.7 6.5s-4-4.8-10.6-4.5l3.4 8-7.1 3.4-5.1-13s-5.1-5.7-2.8-11-.7-3.3-.7-3.3l-2.1-8.5 11.3-3.8 5.8 12 11 9.6 9.4.1c.8 0 1.7.6 2 1.4Z"/><path fill="#ffb6b6" d="m56.9 393.9 6.2 4.4 22.8-26.1-9.2-6.6-19.8 28.3z"/><path fill="#2f2e41" d="M69.7 421.9c-.7 1-2 1.4-3 .8L54 414s2.1-5.8-1.5-11.4l-5.2 7-6.5-4.5 8.6-10.9s2.4-7.3 8.1-8c5.7-.7 2.5-2.2 2.5-2.2l6.2-6.2 9 7.8L68 397l-2.7 14.3 4.7 8.2c.4.7.3 1.7-.2 2.5Zm65-278.6h32.8v45.1h-32.8z"/><path fill="#1e90ff" d="m160.1 169-17.8-5.2-3.4 9.1-.5 56s25.6-5.8 31.4 3.8l1.9-17.3s6.2-8.7 1-19.8c-5.4-11-10.4-16-10.4-16l-4.1-2.3 2-8.2Z"/><path fill="#ffb6b6" d="m139.6 220.4-2.4 24.6 31.8 6.7s-2.4-21.2.5-26l-29.9-5.3Z"/><path fill="#2f2e41" d="M171 251.2s-20.3-14.9-37.6-9.1c0 0-20.5 12.8-9.9 35l-16.1 38.2L71.2 366l10.1 12 47.7-49.6 15.5-21.2 39 83 12-5.9-15-63.6-8.8-44-.7-25.4Z"/><path fill="#2f2e41" d="M123.7 279.7 99.6 272l23.2-64.1-2.4-34.2 20.4-5.8 11.4 50.6-28.5 61.2zm37.3-98.9-3.6-3.6 1.6-3.4s10.5 11 12.4 13.8 20 75.5 20 75.5l-27.2 11.3 5.3-57 2-12.9a9 9 0 0 0-1-5.5l-9.5-18.2Z"/><circle cx="152.2" cy="148.6" r="16" fill="#ffb6b6"/><path fill="#2f2e41" d="M162 142c-5.4-3.6-15.2 11-18.2 2-.5-1.4-1.6 4.8-2 7-.5 2.8.8 5 0 5.4-.9.6-3-1.9-3.5-1.5-.4.4 1 3.2 3.5 6.6 3.4 4.5 5.5 5.6 8.2 8.6 2.6 2.8 7.3 8 6.6 12.5-1.2 8.3-21.7 14.8-28 8.5-1.5-1.5-1.8-4.9-2.4-11.7-.8-10-.2-17.6 0-19.8.8-9.4 1.2-14 3.2-18 1.2-2.5 5.3-10.9 14.4-13.6 9.7-3 21.4 1.9 24.5 9 1 2 0 1.8 1.2 8.5 1.3 8 2.2 12.8 5.8 15.6 3.4 2.6 6 1.2 7 3.1 3 5.2-10.6 21.3-16.3 19.1-3.5-1.3-3.8-9.2-3.5-12.8.5-7.9 4.4-9.6 4.3-16.8 0-1.9-.2-8.7-4.7-11.7Z"/><path fill="#ffb6b6" d="M92.5 275.5c-.7 4.3 1 8.1 3.7 8.5 2.7.5 5.4-2.6 6-6.9.4-1.7.3-3.4-.3-5l2.7-18.1-8.5-1.1-1.7 18c-1 1.3-1.7 3-2 4.6Z"/><path fill="#2f2e41" d="M123.3 174.6s-7.3-2.9-10.2 2.4-14.4 48.2-14.4 48.2l-4.8 42 10 .4 8.3-38.5 17.8-33.3-6.7-21.2Z"/><path fill="#e6e6e6" d="M583 430.2c0 .4-.3.8-.8.8H0v-1.7h582.2c.5 0 .8.4.8.9Z"/></svg>