<svg xmlns="http://www.w3.org/2000/svg" data-name="Layer 1" viewBox="0 0 965.8 729.2"><path fill="#3f3d56" d="M445.4 155.6H207a4.4 4.4 0 0 1-4.4-4.4V92a4.4 4.4 0 0 1 4.4-4.5h238.3a4.4 4.4 0 0 1 4.4 4.5v59a4.4 4.4 0 0 1-4.4 4.5ZM207 89.4a2.7 2.7 0 0 0-2.6 2.7v59a2.7 2.7 0 0 0 2.6 2.7h238.3a2.7 2.7 0 0 0 2.6-2.6V92a2.7 2.7 0 0 0-2.6-2.7Z"/><circle cx="244.2" cy="119.3" r="18" fill="#1e90ff"/><path fill="#e6e6e6" d="M285.7 107.4a3 3 0 0 0 0 6h141.2a3 3 0 0 0 0-6Zm0 17.9a3 3 0 1 0 0 6h60.7a3 3 0 1 0 0-6Z"/><path fill="#3f3d56" d="M342 366.2H236a4.4 4.4 0 0 1-4.3-4.4V251.5a4.4 4.4 0 0 1 4.4-4.4H342a4.4 4.4 0 0 1 4.4 4.4v110.3a4.4 4.4 0 0 1-4.4 4.4ZM236 249a2.7 2.7 0 0 0-2.6 2.6v110.3a2.7 2.7 0 0 0 2.7 2.7H342a2.7 2.7 0 0 0 2.6-2.7V251.5a2.7 2.7 0 0 0-2.6-2.6Z"/><path fill="#e6e6e6" d="M258.6 269.9a3 3 0 0 0 0 6h60.8a3 3 0 0 0 0-6Zm0 17.6a3 3 0 1 0 0 6h60.8a3 3 0 1 0 0-6Z"/><path fill="#1e90ff" d="M289 343.5a18.9 18.9 0 1 1 18.9-18.9 18.9 18.9 0 0 1-18.9 18.9Z"/><path fill="#3f3d56" d="M515.4 0h106a4.4 4.4 0 0 1 4.3 4.4v110.3a4.4 4.4 0 0 1-4.4 4.4H515.4a4.4 4.4 0 0 1-4.4-4.4V4.4a4.4 4.4 0 0 1 4.4-4.4Zm106 117.3a2.7 2.7 0 0 0 2.6-2.6V4.4a2.7 2.7 0 0 0-2.7-2.6H515.4a2.7 2.7 0 0 0-2.6 2.6v110.3a2.7 2.7 0 0 0 2.6 2.6Z"/><path fill="#e6e6e6" d="M598.8 96.4a3 3 0 1 0 0-6H538a3 3 0 1 0 0 6Zm0-17.7a3 3 0 1 0 0-6H538a3 3 0 1 0 0 6Z"/><path fill="#1e90ff" d="M568.4 22.7a18.9 18.9 0 1 1-18.9 18.9 18.9 18.9 0 0 1 18.9-18.9Z"/><path fill="#3f3d56" d="M204 228.2a151 151 0 0 1 64-29 148.8 148.8 0 0 1 70.5 3.7 150.5 150.5 0 0 1 33 14.3 191.5 191.5 0 0 1 29.2 21.8c9.3 8.1 18.3 16.6 28 24.3a156.9 156.9 0 0 0 97.6 34.3l8.8-.2c1.6 0 1.6-2.6 0-2.5a154.3 154.3 0 0 1-100.9-30.5c-10-7.5-19.2-16.1-28.6-24.4a223 223 0 0 0-28.8-22.5 151.9 151.9 0 0 0-167.6 3.9 158 158 0 0 0-6.9 5c-1.2 1 .5 2.7 1.8 1.8Z"/><circle cx="202.8" cy="227.3" r="12.9" fill="#3f3d56"/><circle cx="682.1" cy="398.3" r="12.9" fill="#3f3d56"/><path fill="#3f3d56" d="M749.7 325H539.4a4.4 4.4 0 0 1-4.4-4.5V211.1a4.4 4.4 0 0 1 4.4-4.4h210.3a4.4 4.4 0 0 1 4.4 4.4v109.4a4.4 4.4 0 0 1-4.4 4.4ZM539.4 208.4a2.7 2.7 0 0 0-2.7 2.6v109.4a2.7 2.7 0 0 0 2.7 2.7h210.3a2.7 2.7 0 0 0 2.6-2.7V211.1a2.7 2.7 0 0 0-2.6-2.6Z"/><circle cx="574.7" cy="245.5" r="18" fill="#1e90ff"/><path fill="#e6e6e6" d="M616.2 233.5a3 3 0 1 0 0 6h113.2a3 3 0 1 0 0-6Zm0 18a3 3 0 1 0 0 6h60.7a3 3 0 1 0 0-6Zm-55.3 28.7c-2.3 0-4.2 1.3-4.2 3s1.9 3 4.2 3h166.8c2.3 0 4.1-1.4 4.1-3s-1.8-3-4.1-3Zm0 18c-2.3 0-4.2 1.3-4.2 3s1.9 3 4.2 3h166.8c2.3 0 4.1-1.4 4.1-3s-1.8-3-4.1-3Z"/><path fill="#3f3d56" d="M522.5 410.3c11.9-5.1 25.1-.6 36.3 4.1 5.7 2.5 11.4 5 17.4 7a99.3 99.3 0 0 0 15.3 3.6 108.5 108.5 0 0 0 31.6.2 110.1 110.1 0 0 0 30.4-8.8 103 103 0 0 0 26.4-17.2l2.9-2.8c1.1-1.1-.6-2.9-1.8-1.8a100 100 0 0 1-25.6 18.2 107.6 107.6 0 0 1-30 9.6 105.4 105.4 0 0 1-31.4.5 99 99 0 0 1-15.4-3.3 163 163 0 0 1-17-6.6c-11.3-4.9-23.8-9.6-36.2-6.3a30.2 30.2 0 0 0-4.2 1.5c-1.4.6-.2 2.8 1.3 2.1Z"/><path fill="#1e90ff" d="M518 440.8h-99.4l23.4-40.5a4.8 4.8 0 0 1 8.2 0l10 17.3 17-29.5a6 6 0 0 1 10.3 0Z"/><path fill="#3f3d56" d="M518 440.7H412.1a4.4 4.4 0 0 1-4.4-4.4v-59a4.4 4.4 0 0 1 4.4-4.5H518a4.4 4.4 0 0 1 4.4 4.4v59.1a4.4 4.4 0 0 1-4.4 4.4Zm-105.9-66.1a2.7 2.7 0 0 0-2.6 2.6v59.1a2.7 2.7 0 0 0 2.6 2.7H518a2.7 2.7 0 0 0 2.7-2.7v-59a2.7 2.7 0 0 0-2.7-2.7Z"/><path fill="#ffb8b8" d="m725.7 388.7-18.9 9.6c-6.7 3.4-13.2 2.8-15.7-4.3a12.5 12.5 0 0 1 9.5-16.4l18-3.3 76.8-25.5 46.5-33 17 27.2-53.7 29Zm88.1 318.2-14.4-2.4 1.6-27.3h15.2l-2.4 29.7zM954 680.2l-14 4.4-10.9-25.1 13.6-6.9 11.3 27.6z"/><path fill="#2f2e41" d="m946.2 656.3-17.7 7.2-84.2-110.7-26.5 130-17.6-3.2c-11.4-112-20.6-226.4-9.3-280.4l65.4-2.8L886 491l14.5 64.1ZM813 729a12.7 12.7 0 0 1-7.8-.9l-8.6-3.9c-7.2-.3-12.1 1.1-16.1-4.1a10.5 10.5 0 0 1-1.2-10.6 10.6 10.6 0 0 1 8.6-6.3l11.8-7.4.6 5.6c5.4 3 11.8 1.7 18.5-1.3l3.7 13a12.7 12.7 0 0 1-9.5 15.8Zm146.7-26.6a12.7 12.7 0 0 1-7.7 1.7l-9.4-.8c-6.9 2-11 5-16.6 1.3a10.5 10.5 0 0 1-4.6-9.6 10.6 10.6 0 0 1 6.2-8.8l8.7-10.8 2.4 5c6 1.2 11.7-2.2 17.1-7.2l7.7 11a12.7 12.7 0 0 1-3.8 18.2Z"/><circle cx="832.3" cy="253.6" r="28.9" fill="#ffb8b8"/><path fill="#ffb8b8" d="m867.6 314.6-37.7-8.1-4.9-31.3 26.5-5.6 16.1 45z"/><path fill="#1e90ff" d="M857.1 400.4h-67.4l15.2-38.1a39.3 39.3 0 0 1 12.4-31.2l10.1-25.4c16.4-10.7 28.7-10 41.8 4 15.5 22 4.7 55-12 90.7Z"/><path fill="#ffb8b8" d="m826.6 481.4-1.9 21.1c-.7 7.5-4.6 12.7-12 11a12.5 12.5 0 0 1-8.8-16.7l6.7-17 19.3-78.6-3.3-57h32.1l-4 61Z"/><path fill="#1e90ff" d="M861.1 345.8h-36.9l2.6-24a16.7 16.7 0 0 1 15.9-16 16.7 16.7 0 0 1 17.5 16Z"/><circle cx="868" cy="213" r="10.9" fill="#2f2e41"/><path fill="#2f2e41" d="M856.8 210.4a10.8 10.8 0 0 1 10.9-10.2h-.7a10.9 10.9 0 0 0-1.4 21.6h.7a10.8 10.8 0 0 1-9.5-11.4Z"/><path fill="#2f2e41" d="M856.8 215c-9.7-8-37.5 2.2-39.3 7.6-13 1.8-23 9.4-23 23a39.3 39.3 0 0 0 26.2 0c15.3 12.4 16.3 28 7 46l11.5.2 14.1-20.7.7 21 26.1-.5v-30a62.8 62.8 0 0 0-6.7-28.9c-4-7.9-10.4-12.5-16.6-17.7Z"/><ellipse cx="832.4" cy="260.8" fill="#ffb8b8" rx="5.2" ry="7.3"/><path fill="#ffb9b9" d="M179.2 270s3.1-54 19.3-41.7-7 46.8-7 46.8Zm-60.4 160.5s36 40.5 16 43.2-28.2-38-28.2-38Z"/><path fill="#575a89" d="M71.8 239a23.7 23.7 0 0 1 17.5 19.7l11.4 81.5 16.1 65.1s8 7.3 4.8 11.3 4 20.9 4 20.9l-20 6.4S103 427 99 426.2c-3.5-.7-43-106.3-52.6-131.8l-2-5.6S46 235 71.8 239Z"/><path fill="#ffb9b9" d="m75.5 664.5 12.3 21.9c9.6 20.4 1 24-22.3 14l-5.5-26Z"/><path fill="#2f2e41" d="M81.7 693.6s5.9-9.6 8-8l10.8 8.5 11.4 11s38.5 4 14 17.5-37.9 2.3-37.9 2.3-34.2 1.7-33.7-7.8S66 692.4 66 692.4s14 9.4 15.8 1.2Zm-61-276.3 11.6 140s.4 83.7 12.7 99.9 12.7 24.3 12.7 24.3l25.5-13.2S70 646.5 72.8 643.2a18.6 18.6 0 0 0 3.5-7.2l-7-86.4 13.1-150.4Z"/><path fill="#ffb9b9" d="M52.3 664.5 41.5 693l-24.4-10.2L30 661.4l22.3 3.1z"/><path fill="#2f2e41" d="M34.3 683.4s9.2-5.7 10.4-3.4l5.7 12 5.2 14.4s31.5 20 4.6 21.2-33.9-14.3-33.9-14.3S-4.1 700 .5 692 21 675.7 21 675.7s8 14 13.2 7.7Zm84.4-265.7 6.1 128.8S68.5 663 62.4 666a15.5 15.5 0 0 0-7.7 9.3l-34-8.5 15.5-24.7L70 559.6s5.4-2.3 7-10 4.5-7.7-3.2-9.3-7.7-9.2-7.7-9.2L40.8 413.9Z"/><circle cx="208" cy="270.2" r="30.8" fill="#ffb9b9" transform="rotate(-80.8 99.3 296.3)"/><path fill="#ffb9b9" d="M63.5 186.8s-2.3 39.3-5.4 43.1 32.4 3.1 32.4 3.1-2.3-33.1 0-36.2-27-10-27-10Z"/><path fill="#575a89" d="M121 426.2s-87.2-7.7-103.4 0c0 0 6-22.1 4.5-24.4-1.2-1.7 2-64.7 1-101-.6-20.5-5.3-40.5 8.4-55.8 4.7-5.1 10-9.5 15.4-11.6 0 0-1.5-14.6 6.2-15.4 0 0 29.3-3 40.1 6.2 3.5 3 5.6 11.9 5.9 19.6-5.4 26.2-3.5 55.4 1.4 85.6l1 5.8c5.2 30 13 60.9 19.5 91Z"/><path fill="#2f2e41" d="M74.8 194c2.6-.2 5.1.7 7.7 1 9.3 1.2 19-5.5 21-14.6a11.2 11.2 0 0 1 1-3.5c1.5-2.3 4.7-2.8 7.4-2.3s5.2 1.8 8 2c4.2.2 8.2-2.4 10.5-6a20.1 20.1 0 0 0 2.5-12.1l-2 2a10.3 10.3 0 0 1-.9-5.5 6.5 6.5 0 0 0-6.1 1.6c-1.8.2-.5-3.3-1.8-4.5a3 3 0 0 0-2.1-.4c-3.8 0-6.9-2.9-9.9-5.2a41.8 41.8 0 0 0-17.6-8c-4.3-.9-8.8-1-12.9.6a27.5 27.5 0 0 0-8.7 6.1A53 53 0 0 0 56.3 167a36.5 36.5 0 0 0-.2 21.2c1 3.6 4.3 15.9 9 16.1 5.9.4 2.3-9.8 9.7-10.3Z"/><path fill="#575a89" d="m87.6 242.8 11 1.2s10.9 21 10 25.4-2.4 1.7 2.4 8.8 18.8 25.1 20.5 27.8 48.5-33 45.6-43.7c0 0 14.8 10.6 21 12 0 0-48.1 63.2-54.8 71.3s-12.2 6.4-21.4 1.6-56-52.6-56-52.6Z"/><path d="m218.6 420.6-38.4-38.4 9.7-3.2 27.7 35.8 1 5.8Z" opacity=".1" style="isolation:isolate" transform="translate(-117 -85.4)"/></svg>