<svg xmlns="http://www.w3.org/2000/svg" xmlns:xlink="http://www.w3.org/1999/xlink" data-name="Layer 1" viewBox="0 0 1007 889.1"><defs><linearGradient id="a" x1="436.9" x2="436.9" y1="827.5" y2="266.8" gradientUnits="userSpaceOnUse"><stop offset="0" stop-color="gray" stop-opacity=".3"/><stop offset=".5" stop-color="gray" stop-opacity=".1"/><stop offset="1" stop-color="gray" stop-opacity=".1"/></linearGradient><linearGradient xlink:href="#a" id="b" x1="729.5" x2="729.5" y1="449.3" y2="-37.4" gradientTransform="rotate(-34.7 813 377)"/><linearGradient xlink:href="#a" id="c" x1="752.4" x2="752.4" y1="126.7" y2="59.4" gradientTransform="rotate(-34.7 813 377)"/></defs><path fill="#1e90ff" d="M.5 462.8c3 33.7 22.1 64.3 33.8 96.4a228.7 228.7 0 0 1 4.5 142c-2.8 9.6-6.2 19.2-6.2 29 0 33.8 38.5 56.3 73.5 71.2a1340.6 1340.6 0 0 0 276.8 83.7c31 5.8 69.9 8.4 89.5-13.7 9.5-10.6 11.8-24.4 18.7-36.3 17.7-30.3 60.7-42.1 99.3-48.9A1212.5 1212.5 0 0 1 731 770c47.5-2.6 101.4-5 132.9-36.1 20-19.9 25.8-47.2 26.6-73 2.6-84.8-37.9-176.5 14.1-249.9 21.8-30.8 57.4-53.2 79-84.1 31.3-44.7 28.6-101.5 7.4-149.2s-58.7-88.2-95.8-128C883 36.8 870 23 851.5 17c-19.1-6.4-40.8-3.5-61.3-.5C696.9 30.1 600 45 521.8 91.8c-38.9 23.2-71.3 53.3-106 81-74.9 60-161.6 115.2-260.5 138.9-80.4 19.2-162 71-154.8 151.1Z" opacity=".1"/><path fill="url(#a)" d="M540.8 473a15.4 15.4 0 0 1 1.4-.6s-41.2-23.2-52.7-29.6a96.8 96.8 0 0 1-11.8-8.4c14.3-5.2 34.4-14.5 45-28.4 0 0-3-2.5-6.9-6.1l4.2-4.9s21.6-17.4 6.7-26.4c-12-7.4-19.7 12.1-22.1 19.7l-.8-1S480.4 422.8 449 405a43 43 0 0 1-4.8-8.8 40 40 0 0 0-11-15.4l-3.2-12.3-5.7-4.7c0-6.8.2-14.9 1-22l.2-1.4a29 29 0 0 0 18.7-26.8 27.8 27.8 0 0 0-2.8-12.3c4.4-5 7.7-12 6.7-18-.8-4.6-4.7-7.6-9.5-9.8-4.6-2.3-10.2-3.7-14.4-4.8-7.7-2-16-3-23.6-.4a81.4 81.4 0 0 0-29.7 18.3c-7.6 7-16 18.9-25 24s-17.8 12-21.3 21.3c-5 13.3 1.8 27.6 4.9 41.3a79.4 79.4 0 0 1-3.9 46.5c-5.8 14.7-16.4 29.1-13.8 44.7 2 11.8 11.4 21 22.9 26.3A57.8 57.8 0 0 0 351 496c9.7 1.6 20 1 29-2.6a107.7 107.7 0 0 1-16.2 30c-6.6 8.5-6 13 0 13.5l-.7 2.5c-1.9 9.4-2.5 24.7.7 49.8 8.2 63.2-9.4 82.6-9.4 82.6l5.3 1.6-.5 1.2a88.1 88.1 0 0 0 0 54 336 336 0 0 1 10.5 44.3v.3c-.8.3-3.6 1.6-5.6 5.8a16.4 16.4 0 0 0 2.4 18v24.5h3.4v-20.7a58.3 58.3 0 0 1 7.6 11.5 26.1 26.1 0 0 0 20.1 14.3c8.7 1.2 18.3 1.6 22.3-1.3 0 0 3-5.6-11.3-12.5l-.2-.1a75.1 75.1 0 0 1-13-28.2 78.3 78.3 0 0 0-3.8-17 49.6 49.6 0 0 1-2.6-12.7c-1-13.3-2.7-42.4-.2-48.8 1.8-4.3 2.8-15.2 3.4-24.7V680a188.9 188.9 0 0 0 45.3.3v6.3s-6 19.4 6 47.1c0 0 16.6 25.2 20.3 40.1l.3 1.3c-2.2.2-12 2.5-8.4 23.1l-.6 27.1h3.3l.7-23.8s3.4-5.8 14.9 6.4l4.7 5.2a42 42 0 0 0 32.8 13.8c7.4-.2 14.5-1 17.2-2.8 0 0 6.8-5.2-10.1-7.8l-7.8-2.3h-.3l-1-1.2a69.2 69.2 0 0 1-16.8-29.5 53 53 0 0 0-3.6-11.6l-6.3-14.2-14.9-76 1.5-7.5.3-1.3 2.3-1s13.5-9.6-6.8-68.3c0 0-7.9-32.7-11.9-58.8l9.9-1.8s-1.6-23-4.6-39c2-7.5 3.1-14 1.9-17.2a30 30 0 0 1-1.8-9 206 206 0 0 0-2.2-20.7l12.7 9 64.2 31a19.8 19.8 0 0 1-2.1-12.6c4.7 6.7 17.1 21.6 27.8 9.3 11-12.4-10-18.6-18.3-20.5Z" transform="translate(-96.5 -5.4)"/><path fill="#f8bdc5" d="M435.1 467.9s33.1 5.7 20.4 21-28-12.1-28-12.1Z"/><path fill="#575988" d="M325 369.2s16.6 7.7 22.3 23.6 31.8 39.4 42.6 45.8l49.7 29.3s-16.6 6.3-8.3 24.2l-60.5-30.6-27.3-20.4Z"/><path d="M325 369.2s16.6 7.7 22.3 23.6 31.8 39.4 42.6 45.8l49.7 29.3s-16.6 6.3-8.3 24.2l-60.5-30.6-27.3-20.4Z" opacity=".1"/><path fill="url(#b)" d="M678.3 7.9s-73-26.6-150.4 95.2c0 0-32.6 68-105.4 67.7l-7.8-17.7-14.7 5.7 197 450 14.9-4.7L519 390.9c30.8-2.3 99.4-24.5 162-162.6 0 0 56.1-105 138.4-92.5Z" transform="translate(-96.5 -5.4)"/><path fill="#5d76b7" d="m314 167.4 95.5 216S502 405.8 584 224.8c0 0 55-102.6 135.5-90.5L581.4 9.3s-71.3-26-147 93.1c0 0-37 77.3-120.4 65Z"/><path fill="#ffd037" d="m435.6 142.4 4.7 13-9 8.9 10.4-1.3 3.9 11.8 3.1-13.4 9.7-.8-8.6-7 2-12.7-7.6 8.5-8.6-7zm19.5-38.7 4.1 12.2-7.8 9.7 9.3-2.1 5 11.1 1.2-13.8 10.2-1.7-8.8-5.7 1.9-12.1-6.3 8.1-8.8-5.7zm29.4-23.6 4.5 10.4-7.7 10.6 9.2-3.1 4.5 10.4 2.9-12.8 10.6-1.9-9.8-5.6L502 75l-8.2 10-9.3-4.9zm32.9-.7 4.5 10.4-9.3 9.1 10.6-2.5 4.2 10.6 3.3-13.1 10.8-1.5-8.8-4.2 3.1-13.4-9.1 9.5-9.3-4.9zm27.4 19.3 4.4 10.4-9.2 9.1 10.6-2.5 4.1 10.6 3.3-13.1 10.8-1.5-8.8-4.2 3.1-13.4-9 9.5-9.3-4.9zm14.6 29.7 4.5 10.4-9.3 9.1 10.6-2.5 4.1 10.6 3.4-13.1 10.7-1.5-8.8-4.2 3.1-13.4-9 9.5-9.3-4.9zm-7 47.4 4.9 11.1-8.8 13.7 10.7-4.8 4.6 9.8 2.2-13.9 11.4-4.7-10.1-4.3 2.1-13.3-6.8 9.5-10.2-3.1zm-16.1 44.5 3.9 11.8-7.8 12.9 10.4-4.4 4.3 10.9 2.1-14.9 9.8-4.5-8.8-4.2 2.3-14.5-7.3 10.4-8.9-3.5zm-30.7 27.2 4 12.8-9.4 11.3 9.3-2.1 4.1 10.6 3.1-13.4 9.6-4-7.5-5.5 2-14.9-7 10.8-8.2-5.6zm-31.7 4.7 3.6 13.1-9.8 8.3 9.9-.4 2.9 10.4 3.9-12.3 10.9-2.2-8-6.8 1.9-12.1-7.1 7.6-8.2-5.6zm-28.8-23.7 3.8 12.4-12.1 8.4 12.7.4 2.4 12.8 4.8-14.1 11.9-.7-8.9-6.7 3.7-15.5-10.6 9.5-7.7-6.5zm-11.3-42.8 3.8 12.5-12.1 8.3 12.7.4 2.4 12.8 4.8-14.1 11.9-.7-8.9-6.7 3.7-15.5-10.6 9.5-7.7-6.5z"/><path fill="url(#c)" d="m636.7 183.1-22-24.4a3.8 3.8 0 0 0-5.4-.3l-1.8 1.6-9.2-10.3a9.8 9.8 0 0 0-13.8-.7l-12 10.8a9.8 9.8 0 0 0-.7 13.7l9.2 10.3-1.8 1.6a3.8 3.8 0 0 0-.3 5.4l22 24.5a3.8 3.8 0 0 0 5.4.3l30.1-27a3.8 3.8 0 0 0 .3-5.5ZM576 173a9.8 9.8 0 0 1 .7-13.8l6.8-6a9.8 9.8 0 0 1 13.7.7l7.6 8.4-21.3 19.1Zm34 13.9 3.6 4a2.1 2.1 0 1 1-3.2 2.8l-3.7-4.2a5.2 5.2 0 1 1 3.4-2.6Z" transform="translate(-96.5 -5.4)"/><path fill="#f0f5fa" d="m488.8 145-11.4 10.2a9.3 9.3 0 0 0-.7 13.1l9.7 10.8 2.4-2.3-8-9a9.3 9.3 0 0 1 .7-13l6.4-5.8a9.3 9.3 0 0 1 13 .7l8.1 9 2.5-2.2-9.6-10.8a9.3 9.3 0 0 0-13.1-.7Z"/><path fill="#f0f5fa" d="m512.3 154-28.6 25.6a3.6 3.6 0 0 0-.2 5.1l20.8 23.2a3.6 3.6 0 0 0 5.2.3l28.5-25.6a3.6 3.6 0 0 0 .3-5.2l-20.8-23.2a3.6 3.6 0 0 0-5.2-.3Zm.8 27 3.4 3.8a2 2 0 1 1-3 2.7l-3.6-4a5 5 0 1 1 3.3-2.5Zm-203.9-24.1 192 438.6 14.6-4.7-192.2-439.5-14.4 5.6z"/><path fill="#f8bdc5" d="M403.3 387.7s7.6-31.2 21.6-22.3-6.3 26.1-6.3 26.1l-5.8 7Z"/><path fill="#dedff7" d="m326.7 359.2 7.2 6.2 3.1 12.4-5-2.8v-9.6l-5.3-.6v-5.6z"/><path d="m326.7 359.2 7.2 6.2 3.1 12.4-5-2.8v-9.6l-5.3-.6v-5.6z" opacity=".1"/><path fill="#575988" d="m348.3 485 4.2 54.8 12.6-2.6s-2.8-44.5-8.4-52.1-8.4 0-8.4 0Z"/><path d="m348.3 485 4.2 54.8 12.6-2.6s-2.8-44.5-8.4-52.1-8.4 0-8.4 0Z" opacity=".1"/><path fill="#f8bdc5" d="m317.4 809-20.4 3-11.4-8.9-8.3-26v-9.6a21 21 0 0 0-.2-3.4c-.6-5.2-2.8-17.4-10-43.7a90.7 90.7 0 0 1 0-53.2 47.1 47.1 0 0 1 4.4-9.8H299s-.2 7.6-.7 16.4a113 113 0 0 1-3.1 24.3c-2.5 6.4-.8 35 .1 48.2a51 51 0 0 0 2.5 12.6 80.4 80.4 0 0 1 3.5 16.6c1 9.3 7.9 21 12.3 27.8l3.9 5.6Zm96.7.6-8.9 2.5-17.2-7-21.6-22.9v-12.7a24.3 24.3 0 0 0-.7-4.4c-3.5-14.7-19-39.5-19-39.5-11.4-27.4-5.7-46.5-5.7-46.5v-19.7s29.9-10.2 31.1-6.3c.8 2-.1 8.5-1 13.6l-1.5 7.3 14 75.1 6 14a54 54 0 0 1 3.4 11.4 69.4 69.4 0 0 0 15.7 29c3 3.8 5.4 6 5.4 6Z"/><path d="m317.4 809-20.4 3-11.4-8.9-8.3-26v-9.6a21 21 0 0 0-.2-3.4 4.8 4.8 0 0 1 .8-.4s2.6 9.5 1.3 14c-1 3.5 7.7 16.8 11.3 22a15 15 0 0 0 7.3 5.8c7 2.4 13.6-.9 15.8-2.2l3.8 5.6Z" opacity=".1"/><path fill="#575988" d="M313.7 803.6s-8 5.6-16.6 2.6a15 15 0 0 1-7.3-5.8c-3.6-5.2-12.2-18.5-11.2-22 1.2-4.4-1.3-14-1.3-14s-3.2 1-5.5 5.8a16.8 16.8 0 0 0 2.3 17.8v24h3.2v-20.3a57.8 57.8 0 0 1 7.1 11.3 24.7 24.7 0 0 0 19 14c8.2 1.3 17.3 1.7 21-1.1 0 0 2.8-5.6-10.7-12.4Z"/><path d="m414.1 809.6-8.9 2.5-17.2-7-21.6-22.9v-12.7a24.3 24.3 0 0 0-.7-4.4 4.7 4.7 0 0 1 .7 0c0 3.3 5.6 11.1 9.6 16.2a99.8 99.8 0 0 1 5.8 8.4 30.7 30.7 0 0 0 26.9 14c3 3.6 5.4 5.9 5.4 5.9Z" opacity=".1"/><path fill="#575988" d="M366.4 766.3s-12.1 0-8.3 23l-.6 26.7h3.2l.6-23.6s3.2-5.7 14 6.4l4.5 5a38.6 38.6 0 0 0 30.9 13.7c7-.2 13.6-1 16.2-2.8 0 0 6.3-5.1-9.6-7.7l-7.3-2.2s-18.4 2-28.2-13.8a98.9 98.9 0 0 0-5.8-8.4c-4-5.1-9.6-13-9.6-16.3Z"/><path d="M271.6 657.5h27.3s-.1 7.6-.6 16.4a193.2 193.2 0 0 1-31-6.6 47.1 47.1 0 0 1 4.3-9.8Zm99.4 9.2a126.7 126.7 0 0 1-30 7.5v-14.8s29.8-10.2 31.1-6.3c.7 2-.2 8.5-1 13.6Z" opacity=".1"/><path fill="#575988" d="M373.4 664.5c-52.2 21.6-110.7 0-110.7 0s16.5-19 8.9-81.5c-3-24.7-2.5-39.8-.7-49 2.7-14.1 8.3-14.6 8.3-14.6l75.1-8.9c-.7 2.6-.7 6.9-.3 12.2 1.7 25.3 13 74.3 13 74.3 19.1 58 6.4 67.5 6.4 67.5Z"/><path fill="#f8bdc5" d="M333.3 323.4a40 40 0 0 0-3.8 15.7c-1.6 15.6-.7 35.9-.7 35.9s-38.8 21-29.9-6.4a68.4 68.4 0 0 0-4.4-50.9s45.2-3.8 38.8 5.7Z"/><path d="M333.3 323.4a40 40 0 0 0-3.8 15.7 28.6 28.6 0 0 1-29-4.4 65 65 0 0 0-6-17s45.2-3.8 38.8 5.7Z" opacity=".1"/><circle cx="318.7" cy="311.3" r="28.6" fill="#f8bdc5"/><path d="M354 522.7c-3.5 9.6-6.7 17-6.7 17s-30-25.4-52.8-13.3c-10.8 5.7-19 8.2-23.6 7.6 2.8-14.1 8.3-14.6 8.3-14.6l75.1-8.9c-.7 2.6-.7 6.9-.3 12.2Z" opacity=".1"/><path fill="#575988" d="M347.3 537.2s-30-25.4-52.8-13.3-34.4 9.5-23-5.8 26.8-47.7 15.3-71.9-15.9-62.3-7-72.5S297 352 297 349.5c0 0 32.5 23.5 38.8 33.1a126 126 0 0 1 8.2 18.3 840 840 0 0 1 5.5 15 189.2 189.2 0 0 1 7.1 24.6A208.8 208.8 0 0 1 361 473a30.8 30.8 0 0 0 1.6 8.9c3.8 10.2-15.3 55.3-15.3 55.3Z"/><path fill="#dedff7" d="m334 366-.8 13.3-36.7-28s-.8-5.6 8.8.1 28.6 14.7 28.6 14.7Z"/><path d="M356.6 440.5c-33.6.6-71.7-36.9-71.7-36.9-13.3-35.6 31.9-28 31.9-28s3.7 9.6 27.2 25.3a840 840 0 0 1 5.6 15 189.2 189.2 0 0 1 7 24.6Z" opacity=".1"/><path fill="#575988" d="M285 399.1s43.2 42.7 78.2 36.3c0 0 41.4-10.2 58-33 0 0-10.9-9.6-17.9-18.5 0 0-22.3 35.6-52.2 17.2s-34.3-30-34.3-30-45.2-7.6-31.9 28Z"/><path d="M329.8 267.7a37 37 0 0 0-22.3-.4 76.6 76.6 0 0 0-28 18c-7.2 6.9-15 18.7-23.5 23.7s-16.7 11.7-20 21c-4.6 13.1 1.7 27.2 4.6 40.8a81.8 81.8 0 0 1-3.6 45.8c-5.6 14.5-15.5 28.7-13 44.1 2.6 16.5 19 27.6 35.5 30.4a46 46 0 0 0 32.8-5.4 20 20 0 0 0 6.6-6.5c4-7 1.4-15.8-1.1-23.5a668.3 668.3 0 0 1-13.2-48c-2.4-9.3-4.7-19.4-1.4-28.5 3.3-8.9 11.4-15 19.9-19.2 3.3-1.6 6.9-3.1 9.4-5.8a16.1 16.1 0 0 0 3.1-5.3c4.3-11.4-.5-26.2 7.7-35.1 4.2-4.6 10.7-6.2 15.9-9.6 6.5-4.3 13-14.5 11.8-22.7-1.4-8.7-13.7-11.7-21.2-13.8Z" opacity=".1"/><path fill="#eb6475" d="M328.5 267c-7.3-2-15.2-3-22.3-.3a76.6 76.6 0 0 0-28 18c-7.1 6.8-15 18.6-23.5 23.7s-16.7 11.7-20 21c-4.6 13.1 1.7 27.2 4.6 40.8a81.8 81.8 0 0 1-3.6 45.7c-5.6 14.6-15.5 28.8-13 44.2 2.6 16.4 19.1 27.6 35.5 30.4a46 46 0 0 0 32.8-5.4 20 20 0 0 0 6.6-6.5c4-7 1.4-15.8-1.1-23.5a742 742 0 0 1-13.2-48c-2.4-9.4-4.7-19.5-1.4-28.5 3.3-9 11.4-15.1 20-19.3 3.2-1.6 6.8-3 9.3-5.8a16.1 16.1 0 0 0 3.1-5.3c4.3-11.4-.5-26.1 7.8-35 4.2-4.6 10.6-6.2 15.8-9.6 6.6-4.3 13-14.5 11.8-22.8-1.3-8.7-13.7-11.6-21.2-13.7Z"/><path fill="none" stroke="#535461" stroke-miterlimit="10" stroke-width="2" d="M112.7 681s-13.3-45 2.5-78.2a71 71 0 0 0 5.7-44.6 119.6 119.6 0 0 0-6.3-21"/><path fill="#1e90ff" d="M124.4 516.3c0 5.5-10 21.5-10 21.5s-10-16-10-21.5a10 10 0 0 1 20 0Zm16.5 30.6c-3 4.6-20 12.6-20 12.6s.2-18.9 3.2-23.5a10 10 0 0 1 16.8 10.9Zm-.7 52.1c-5 2.6-23.7.9-23.7.9s9.8-16.2 14.7-18.6a10 10 0 0 1 9 17.8Zm-9.5 39.5c-4.4 3.3-23.2 4.7-23.2 4.7s7-17.5 11.4-20.8a10 10 0 0 1 11.8 16Zm-30.8-77.9c4 3.8 22.3 7.8 22.3 7.8s-4.5-18.3-8.4-22.1a10 10 0 1 0-14 14.3Zm-10.5 46.2c5 2.4 23.7.7 23.7.7s-9.8-16-14.7-18.6a10 10 0 1 0-9 17.9Zm-4 46.2c4.4 3.3 23.2 4.8 23.2 4.8s-6.9-17.5-11.3-20.8a10 10 0 0 0-12 16Zm395.7 156.3a11.7 11.7 0 0 0 3.9-5.8c.5-2.3-.5-5-2.7-5.9-2.5-.9-5 .8-7 2.5s-4.4 3.7-7 3.4a10.5 10.5 0 0 0 3.3-9.9 4.1 4.1 0 0 0-1-2c-1.3-1.4-3.8-.8-5.4.4-5.2 3.6-6.7 10.7-6.7 17-.5-2.2 0-4.6 0-7s-.8-5-2.7-6.2a8 8 0 0 0-4-1c-2.4 0-5 .2-6.6 2-2 2-1.4 5.6.3 8s4.3 3.7 6.8 5.4a15 15 0 0 1 4.8 4.6 4.6 4.6 0 0 1 .4.8H472a40.8 40.8 0 0 0 9-6.3Zm196.8-380.9s-41.9 41.9-18.2 104-40.5 165.3-40.5 165.3l2-.3A121.8 121.8 0 0 0 702 510.9c-17.8-27.1-32.4-59-24.1-82.5Z"/><path d="M677.9 429.1s-41.9 41.9-18.2 104-40.5 165.3-40.5 165.3l2-.3A121.8 121.8 0 0 0 702 511.5c-17.8-27.1-32.4-59-24.1-82.5Z" opacity=".1"/><path fill="none" stroke="#535461" stroke-miterlimit="10" d="M677.9 428.4s-23.6 51.3 0 93.2 4 159.2-58.7 176"/><path fill="#1e90ff" d="M752.4 597.7s-47.8-7.6-52.1 35.1-91.8 48.8-91.8 48.8l1.6 1C682.3 730.2 751.4 713 741 650c-3.8-23.4-3.5-46.9 11.5-52.2Z"/><path fill="none" stroke="#535461" stroke-miterlimit="10" d="M752.4 597.7s-37 8-34 41.8-55 74-110 42"/><path fill="#a8a8a8" d="M710.4 683.1s-37.6-7.5-47.6-17.5-55.2-27.6-60.2-15-67.7 55-25.1 62.6 100.3 10 112.8 5 20-35 20-35Z"/><path d="M577.5 708.6c42.6 7.5 100.3 10 112.8 5 9.5-3.8 16.2-22.2 18.8-30.7l1.2.2s-7.5 30.1-20 35.1-70.2 2.5-112.8-5c-12.3-2.2-15.8-7.3-14.5-13.7 1 4.2 5.4 7.4 14.5 9Z" opacity=".2"/><path fill="#a8a8a8" d="M82.9 678.4s22.4-.7 29.1-5.5 34.5-10.6 36.2-2.9 33.6 38.4 8.3 38.6-58.8-4-65.5-8-8.1-22.2-8.1-22.2Z"/><path d="M157 706c-25.3.1-58.8-4-65.6-8-5-3.2-7.1-14.4-7.8-19.6h-.8s1.5 18 8.2 22.2 40.2 8.2 65.5 8c7.3 0 9.8-2.7 9.7-6.5-1 2.3-3.8 3.8-9.2 3.8Z" opacity=".2"/></svg>